<svg width="94" height="16" viewBox="0 0 94 16" fill="none" xmlns="http://www.w3.org/2000/svg">
<path d="M93.7071 8.7071C94.0976 8.31657 94.0976 7.68341 93.7071 7.29289L87.3431 0.928925C86.9526 0.5384 86.3195 0.5384 85.9289 0.928925C85.5384 1.31945 85.5384 1.95261 85.9289 2.34314L91.5858 7.99999L85.9289 13.6568C85.5384 14.0474 85.5384 14.6805 85.9289 15.0711C86.3195 15.4616 86.9526 15.4616 87.3431 15.0711L93.7071 8.7071ZM8.74228e-08 9L46.5 9L46.5 7L-8.74228e-08 7L8.74228e-08 9ZM46.5 9L93 8.99999L93 6.99999L46.5 7L46.5 9Z" fill="#3F3F3F"/>
</svg>
