<svg width="47" height="57" viewBox="0 0 47 57" fill="none" xmlns="http://www.w3.org/2000/svg">
<g filter="url(#filter0_d)">
<path d="M22.0938 41.7969L26.2996 39.0931L26.2507 39.017L26.1991 38.9427L22.0938 41.7969ZM24.8359 41.7969L20.7306 38.9427L20.679 39.017L20.63 39.0931L24.8359 41.7969ZM17.8879 44.5007C20.4889 48.5467 26.4408 48.5467 29.0418 44.5007L20.63 39.0931C21.9654 37.0158 24.9643 37.0158 26.2996 39.0931L17.8879 44.5007ZM28.9413 44.6511C33.9092 37.5053 37.1816 33.1003 39.0505 29.998C40.048 28.3421 40.8345 26.7665 41.3386 25.0579C41.8533 23.3132 42 21.6806 42 20H32C32 21.0616 31.9094 21.679 31.7473 22.2283C31.5746 22.8136 31.2449 23.5759 30.4847 24.8379C28.8379 27.5716 26.0283 31.3228 20.7306 38.9427L28.9413 44.6511ZM42 20C42 9.78545 33.7145 1.5 23.5 1.5V11.5C28.1917 11.5 32 15.3083 32 20H42ZM23.5 1.5C13.1982 1.5 5 9.80245 5 20H15C15 15.2913 18.755 11.5 23.5 11.5V1.5ZM5 20C5 21.6673 5.13973 23.2928 5.64296 25.0325C6.137 26.7403 6.91182 28.3171 7.90297 29.979C9.76186 33.096 13.0134 37.4951 17.9884 44.6511L26.1991 38.9427C20.9085 31.333 18.1131 27.5759 16.4916 24.8569C15.7425 23.6009 15.4187 22.8397 15.2491 22.2537C15.0888 21.6994 15 21.0748 15 20H5Z" fill="#FFA600"/>
</g>
<defs>
<filter id="filter0_d" x="0" y="0.5" width="47" height="56.0352" filterUnits="userSpaceOnUse" color-interpolation-filters="sRGB">
<feFlood flood-opacity="0" result="BackgroundImageFix"/>
<feColorMatrix in="SourceAlpha" type="matrix" values="0 0 0 0 0 0 0 0 0 0 0 0 0 0 0 0 0 0 127 0"/>
<feOffset dy="4"/>
<feGaussianBlur stdDeviation="5"/>
<feColorMatrix type="matrix" values="0 0 0 0 0 0 0 0 0 0 0 0 0 0 0 0 0 0 0.25 0"/>
<feBlend mode="normal" in2="BackgroundImageFix" result="effect1_dropShadow"/>
<feBlend mode="normal" in="SourceGraphic" in2="effect1_dropShadow" result="shape"/>
</filter>
</defs>
</svg>
