<svg width="25" height="19" viewBox="0 0 25 19" fill="none" xmlns="http://www.w3.org/2000/svg">
<path d="M0 17C0 17.7031 0.546875 18.25 1.25 18.25H23.75C24.4141 18.25 25 17.7031 25 17V4.5H0V17ZM17.5 8.875C17.5 8.5625 17.7734 8.25 18.125 8.25H21.875C22.1875 8.25 22.5 8.5625 22.5 8.875V10.125C22.5 10.4766 22.1875 10.75 21.875 10.75H18.125C17.7734 10.75 17.5 10.4766 17.5 10.125V8.875ZM17.5 13.5625C17.5 13.4062 17.6172 13.25 17.8125 13.25H22.1875C22.3438 13.25 22.5 13.4062 22.5 13.5625V14.1875C22.5 14.3828 22.3438 14.5 22.1875 14.5H17.8125C17.6172 14.5 17.5 14.3828 17.5 14.1875V13.5625ZM2.5 9.8125C2.5 9.65625 2.61719 9.5 2.8125 9.5H14.6875C14.8438 9.5 15 9.65625 15 9.8125V10.4375C15 10.6328 14.8438 10.75 14.6875 10.75H2.8125C2.61719 10.75 2.5 10.6328 2.5 10.4375V9.8125ZM2.5 13.5625C2.5 13.4062 2.61719 13.25 2.8125 13.25H9.6875C9.84375 13.25 10 13.4062 10 13.5625V14.1875C10 14.3828 9.84375 14.5 9.6875 14.5H2.8125C2.61719 14.5 2.5 14.3828 2.5 14.1875V13.5625ZM24.375 0.75H0.625C0.273438 0.75 0 1.0625 0 1.375V3.25H25V1.375C25 1.0625 24.6875 0.75 24.375 0.75Z" fill="#262626"/>
</svg>
