<svg width="18" height="24" viewBox="0 0 18 24" fill="none" xmlns="http://www.w3.org/2000/svg">
<path d="M8.0625 23.5312C7.25 22.3438 6.20312 20.8438 4.92188 19.0312C3.35938 16.7812 2.32812 15.2656 1.82812 14.4844C1.10938 13.3594 0.625 12.4219 0.375 11.6719C0.125 10.8906 0 10 0 9C0 7.375 0.40625 5.875 1.21875 4.5C2.03125 3.125 3.125 2.03125 4.5 1.21875C5.875 0.40625 7.375 0 9 0C10.625 0 12.125 0.40625 13.5 1.21875C14.875 2.03125 15.9688 3.125 16.7812 4.5C17.5938 5.875 18 7.375 18 9C18 10 17.875 10.8906 17.625 11.6719C17.375 12.4219 16.8906 13.3594 16.1719 14.4844C15.6719 15.2656 14.6406 16.7812 13.0781 19.0312L9.9375 23.5312C9.71875 23.8438 9.40625 24 9 24C8.59375 24 8.28125 23.8438 8.0625 23.5312Z" fill="#262626"/>
</svg>
