<svg width="24" height="24" viewBox="0 0 24 24" fill="none" xmlns="http://www.w3.org/2000/svg">
<path d="M22.8281 23.1094L23.9531 18.2344C24.0156 17.9844 23.9844 17.7344 23.8594 17.4844C23.7344 17.2344 23.5625 17.0625 23.3437 16.9687L18.0937 14.7187C17.8437 14.625 17.5937 14.6094 17.3437 14.6719C17.125 14.7344 16.9375 14.8594 16.7812 15.0469L14.4375 17.8594C12.625 17.0156 11 15.875 9.5625 14.4375C8.125 13.0312 6.98437 11.4062 6.14062 9.5625L8.95312 7.26562C9.17187 7.10937 9.29687 6.90625 9.32812 6.65625C9.39062 6.40625 9.375 6.17187 9.28125 5.95312L7.03125 0.703124C6.9375 0.453124 6.76562 0.265624 6.51562 0.140624C6.26562 0.0156242 6.01563 -0.0156258 5.76562 0.0468742L0.890625 1.17187C0.609375 1.20312 0.390625 1.32812 0.234375 1.54687C0.0781249 1.76562 -8.74228e-08 2 -9.83506e-08 2.25C-2.70464e-07 6.1875 0.984375 9.84375 2.95312 13.2187C4.89062 16.5 7.5 19.1094 10.7812 21.0469C14.1562 23.0156 17.8125 24 21.75 24C22 24 22.2344 23.9219 22.4531 23.7656C22.6719 23.6094 22.7969 23.3906 22.8281 23.1094Z" fill="#262626"/>
</svg>
