<svg width="24" height="25" viewBox="0 0 24 25" fill="none" xmlns="http://www.w3.org/2000/svg">
<path d="M22.8281 24.1094L23.9531 19.2344C24.0937 18.7188 23.8125 18.1562 23.2969 17.9219L18.0469 15.6719C17.5781 15.4844 17.0625 15.625 16.7344 16L14.3906 18.8594C10.8281 17.1719 7.82812 14.2187 6.09375 10.5625L8.95312 8.21875C9.32812 7.89062 9.46875 7.375 9.28125 6.90625L7.03125 1.65625C6.79687 1.14062 6.23438 0.906249 5.71875 0.999999L0.84375 2.125C0.328125 2.26562 -7.3763e-08 2.6875 -9.83506e-08 3.25C-6.22887e-07 15.25 9.70312 25 21.75 25C22.2656 25 22.6875 24.625 22.8281 24.1094Z" fill="#FFA600"/>
</svg>
