<svg xmlns="http://www.w3.org/2000/svg" viewBox="0 0 467.27 140.22"><defs><style>.cls-1{fill:#f27100;}.cls-1,.cls-2,.cls-3,.cls-4,.cls-5,.cls-6{fill-rule:evenodd;}.cls-2{fill:#fff;}.cls-3{fill:#ebebeb;}.cls-4{fill:#ff8c00;}.cls-5{fill:#ffa600;}.cls-6{fill:#c4c4c4;}</style></defs><title>logo3</title><g id="Слой_2" data-name="Слой 2"><g id="_1" data-name="1"><polygon class="cls-1" points="163.03 0 139.2 118.29 36.5 118.29 68.16 90.94 118.31 90.94 126.55 49.77 105.24 49.77 163.03 0"/><polygon class="cls-2" points="23.7 22.48 126.36 22.48 94.77 49.77 44.59 49.77 36.35 90.94 57.66 90.94 2.34 138.44 0 140.22 23.7 22.48"/><polygon class="cls-3" points="467.27 28.25 426.06 28.25 426.06 36.19 442.31 36.19 442.31 57.66 451.31 57.66 451.31 36.19 467.27 36.19 467.27 28.25"/><polygon class="cls-3" points="421.12 28.25 412.12 28.25 412.12 38.21 387.16 38.21 387.16 28.25 378.15 28.25 378.15 57.66 387.16 57.66 387.16 46.19 412.12 46.19 412.12 57.66 421.12 57.66 421.12 28.25"/><polygon class="cls-3" points="281.84 28.25 240.63 28.25 240.63 36.19 256.88 36.19 256.88 57.66 265.88 57.66 265.88 36.19 281.84 36.19 281.84 28.25"/><path class="cls-3" d="M323.71,28.25h-25.5c-6,0-6.08.23-9.1,5.53L275.79,57.66h9.44l9.95-17.4c1.64-2.76,2.18-4,4.34-4H314.7V57.66h9Z"/><path class="cls-4" d="M249.89,70.81H232.5l-15.68,15H203.27v-15h-13v42.53h13V96.65h14.3l16.37,16.69h17.54l-22.8-22.8,21.21-19.73Zm71.76,10.37c0-6.91-4.26-10.37-12.82-10.37H264v42.53h12.36v-7.78h32.45c8.56,0,12.82-3.46,12.82-10.37v-14Zm-14.81.7c1.59,0,2.39.54,2.39,1.54V93.2c0,1-.8,1.54-2.39,1.54H276.38V81.88Zm85.66-5.6c0-4.65-2.32-5.47-5.51-5.47H353.21c-3.66,0-4.94,1-6.38,3.62l-22.22,38.91h14.68l4.14-7.6h37.12l.06,7.6h11.94l-.05-37.06Zm-14,6.07c.85,0,2,.21,2,1.88l-.05,10.67H349.12l6.11-11.11c.59-1,1.07-1.44,2.08-1.44Zm88.69-11.54h-13V85.22h-36.1V70.81h-13v42.53h13V96.76h36.1v16.58h13Z"/><path class="cls-3" d="M373.83,32c0-3.22-1.61-3.78-3.81-3.78H346.65c-2.53,0-3.42.7-4.41,2.5L326.87,57.66H337l2.87-5.26h25.68l0,5.26h8.26l0-25.64Zm-9.66,4.2c.59,0,1.4.15,1.4,1.3l0,7.38H343.82l4.23-7.69c.4-.7.73-1,1.43-1Z"/><path class="cls-3" d="M236.6,32c0-3.22-1.6-3.78-3.8-3.78H209.43c-2.54,0-3.42.7-4.41,2.5L189.65,57.66H199.8l2.86-5.26h25.68l0,5.26h8.26l0-25.64ZM227,36.22c.59,0,1.4.15,1.4,1.3l0,7.38H206.6l4.23-7.69c.4-.7.73-1,1.43-1Z"/><polygon class="cls-5" points="156.32 5.78 134.43 111.93 43.45 112.28 68.16 90.94 118.31 90.94 127.89 43.41 105.24 49.77 156.32 5.78"/><polygon class="cls-6" points="28.77 29.22 118.48 29.39 126.37 22.27 94.77 49.77 44.59 49.77 35.18 96.64 57.66 90.94 2.34 138.44 0 140.22 7.71 133.83 28.77 29.22"/></g></g></svg>