<svg width="468" height="113" viewBox="0 0 468 113" fill="none" xmlns="http://www.w3.org/2000/svg">
<path fill-rule="evenodd" clip-rule="evenodd" d="M162.993 0L139.148 94.9018H36.4946L68.1192 72.9272H118.276L126.498 39.8892H105.183L162.993 0Z" fill="#F27100"/>
<path fill-rule="evenodd" clip-rule="evenodd" d="M23.6552 18.0161H126.308L94.7471 39.8892H44.5906L36.305 72.9272H57.6199L2.34022 111.04L0 112.461L23.6552 18.0161Z" fill="white"/>
<path d="M467.218 22.6344H425.98V29.0288H442.235V46.233H451.216V29.0288H467.218V22.6344Z" fill="#EBEBEB"/>
<path d="M421.051 22.6344H412.069V30.6528H387.086V22.6344H378.104V46.233H387.086V37.0473H412.069V46.233H421.051V22.6344Z" fill="#EBEBEB"/>
<path d="M281.775 22.6344H240.6V29.0288H256.855V46.233H265.836V29.0288H281.775V22.6344Z" fill="#EBEBEB"/>
<path d="M323.643 22.6344H298.154C292.145 22.6344 292.082 22.8374 289.046 27.1003L275.764 46.233C278.8 46.233 282.089 46.233 285.188 46.233L295.118 32.2768C296.762 30.0438 297.332 29.0288 299.482 29.0288H314.662V46.233H323.643V22.6344Z" fill="#EBEBEB"/>
<path d="M249.833 56.7888H232.439L216.754 68.8165H203.218V56.7888H190.189V90.8926H203.218V77.5454H217.513L233.894 90.8926H251.414L228.644 72.6227L249.833 56.7888ZM321.621 65.1118C321.621 59.5801 317.32 56.7888 308.781 56.7888H264.001V90.8926H276.334V84.6504H308.781C317.32 84.6504 321.621 81.9099 321.621 76.3275V65.1118ZM306.757 65.67C308.402 65.67 309.16 66.1268 309.16 66.888V74.7542C309.16 75.5662 308.402 75.9722 306.757 75.9722H276.334V65.67H306.757ZM392.46 61.1533C392.46 57.4486 390.119 56.7888 386.957 56.7888H353.182C349.513 56.7888 348.185 57.6008 346.794 59.6816L324.53 90.8926H339.204L343.378 84.8026H380.505L380.569 90.8926H392.46V61.1533ZM378.482 66.0253C379.304 66.0253 380.505 66.2283 380.505 67.5478L380.442 76.1245H349.071L355.143 67.1925C355.775 66.3805 356.218 66.0253 357.23 66.0253H378.482ZM467.157 56.7888H454.127V68.3598H418.075V56.7888H405.046V90.8926H418.075V77.5962H454.127V90.8926H467.157V56.7888Z" fill="#FFA600"/>
<path d="M373.738 25.6794C373.738 23.0911 372.157 22.6344 369.944 22.6344H346.605C344.075 22.6344 343.189 23.1926 342.177 24.6644L326.808 46.233H336.991L339.837 42.0207H365.516V46.233H373.802L373.738 25.6794ZM364.125 29.0288C364.694 29.0288 365.516 29.1303 365.516 30.0946L365.453 35.9815H343.758L347.996 29.8408C348.376 29.2826 348.755 29.0288 349.451 29.0288H364.125Z" fill="#EBEBEB"/>
<path d="M236.551 25.6794C236.551 23.0911 234.97 22.6344 232.756 22.6344H209.418C206.824 22.6344 205.939 23.1926 204.99 24.6644L189.621 46.233H199.74L202.65 42.0207H228.329V46.233H236.615L236.551 25.6794ZM226.874 29.0288C227.507 29.0288 228.329 29.1303 228.329 30.0946L228.266 35.9815H206.571L210.809 29.8408C211.189 29.2826 211.505 29.0288 212.201 29.0288H226.874Z" fill="#EBEBEB"/>
<path fill-rule="evenodd" clip-rule="evenodd" d="M156.289 4.61823L134.405 89.7761L43.4531 90.0806L68.1203 72.9272H118.277L127.827 34.8143L105.184 39.8892L156.289 4.61823Z" fill="#FFA600"/>
<path fill-rule="evenodd" clip-rule="evenodd" d="M28.7783 23.3956L118.466 23.5479L126.372 17.8639L94.7471 39.8892H44.5906L35.1665 77.4947L57.6199 72.9273L2.34022 111.04L0 112.461L7.71639 107.336L28.7783 23.3956Z" fill="#C4C4C4"/>
</svg>
