<svg width="253" height="76" viewBox="0 0 253 76" fill="none" xmlns="http://www.w3.org/2000/svg">
<path fill-rule="evenodd" clip-rule="evenodd" d="M88 0L75.182 64H20L37 49.215H63.962L68.382 26.9348H56.924L88 0Z" fill="#FFA600"/>
<path fill-rule="evenodd" clip-rule="evenodd" d="M12.7351 12H68L51.0085 26.8486H24.006L19.5453 49.2245H31.0205L1.25989 75.0032L0 76L12.7351 12Z" fill="#FFA600"/>
<path d="M253 16H231V20.0409H239.672V31H244.463V20.0409H253V16Z" fill="#FFA600"/>
<path d="M228 16H223.19V21.0754H209.81V16H205V31H209.81V25.1487H223.19V31H228V16Z" fill="#FFA600"/>
<path d="M153 16H130V20.0409H139.08V31H144.097V20.0409H153V16Z" fill="#FFA600"/>
<path d="M175 16H161.159C157.896 16 157.861 16.097 156.213 18.8125L149 31C150.649 31 152.435 31 154.118 31L159.51 22.1099C160.403 20.7198 160.712 20.0733 161.88 20.0733H170.123V31H175V16Z" fill="#FFA600"/>
<path d="M135.302 39H125.882L117.387 47.0996H110.056V39H103V62H110.056V52.9777H117.798L126.67 62H136.158L123.827 49.6627L135.302 39ZM174.181 44.6048C174.181 40.8796 171.851 39 167.227 39H142.975V62H149.654V57.7964H167.227C171.851 57.7964 174.181 55.9168 174.181 52.1917V44.6048ZM166.131 44.9807C167.021 44.9807 167.433 45.2883 167.433 45.8351V51.0981C167.433 51.6449 167.021 51.9525 166.131 51.9525H149.654V44.9807H166.131ZM212.546 41.9733C212.546 39.4443 211.278 39 209.565 39H191.274C189.287 39 188.567 39.5468 187.814 40.9822L175.756 62H183.703L185.964 57.899H206.071L206.106 62H212.546V41.9733ZM204.975 45.2541C205.421 45.2541 206.071 45.3566 206.071 46.2452L206.037 52.0208H189.047L192.335 46.0059C192.678 45.4591 192.918 45.2541 193.466 45.2541H204.975ZM253 39H245.944V46.792H226.419V39H219.362V62H226.419V53.0461H245.944V62H253V39Z" fill="#FFA600"/>
<path d="M201.966 17.9355C201.966 16.2903 201.125 16 199.948 16H187.532C186.186 16 185.715 16.3548 185.176 17.2903L177 31H182.417L183.931 28.3226H197.592V31H202L201.966 17.9355ZM196.852 20.0645C197.155 20.0645 197.592 20.1613 197.592 20.7419L197.559 24.5161H186.017L188.272 20.5806C188.474 20.2258 188.676 20.0645 189.046 20.0645H196.852Z" fill="#FFA600"/>
<path d="M127.966 17.9355C127.966 16.2903 127.125 16 125.948 16H113.532C112.152 16 111.681 16.3548 111.176 17.2903L103 31H108.384L109.931 28.3226H123.592V31H128L127.966 17.9355ZM122.818 20.0645C123.155 20.0645 123.592 20.1613 123.592 20.7419L123.559 24.5161H112.017L114.272 20.5806C114.474 20.2258 114.642 20.0645 115.012 20.0645H122.818Z" fill="#FFA600"/>
</svg>
