<svg width="19" height="45" viewBox="0 0 19 45" fill="none" xmlns="http://www.w3.org/2000/svg">
<path d="M9.64645 44.3536C9.84171 44.5488 10.1583 44.5488 10.3536 44.3536L13.5355 41.1716C13.7308 40.9763 13.7308 40.6597 13.5355 40.4645C13.3403 40.2692 13.0237 40.2692 12.8284 40.4645L10 43.2929L7.17157 40.4645C6.97631 40.2692 6.65973 40.2692 6.46447 40.4645C6.2692 40.6597 6.2692 40.9763 6.46447 41.1716L9.64645 44.3536ZM9.5 22L9.5 44L10.5 44L10.5 22L9.5 22Z" fill="white"/>
<rect x="0.5" y="0.5" width="18" height="31" rx="9" stroke="white"/>
<rect x="-0.5" y="0.5" width="2" height="7" rx="1" transform="matrix(-1 0 0 1 10 4)" stroke="white"/>
</svg>
