<svg width="140" height="154" viewBox="0 0 140 154" fill="none" xmlns="http://www.w3.org/2000/svg">
<rect y="13" width="140" height="50" fill="#FFA600"/>
<path fill-rule="evenodd" clip-rule="evenodd" d="M139 18L124.166 18L139 32.49V18ZM139 40.6299L115.833 18L115.833 57.1667H139V40.6299ZM45.929 57.1667L5.83342 18L5.83301 57.1667H45.929ZM14.1663 18L54.262 57.1667L54.2624 18L14.1663 18ZM60.8334 18L100.929 57.1667H60.833L60.8334 18ZM69.1663 18L109.262 57.1667L109.262 18L69.1663 18Z" fill="#262626"/>
<circle cx="48.5" cy="68.5" r="23.5" fill="#262626"/>
<path d="M66.4499 63.878C66.196 62.7356 64.7998 62.3548 63.9112 63.1164L54.5182 72.5094L45.8868 71.1132L44.4906 62.4818L53.8836 53.0888C54.7721 52.2002 54.2644 50.804 53.122 50.5501C47.1562 49.0269 40.5557 50.677 35.8592 55.3735C30.7819 60.3239 29.3856 67.686 31.5435 74.0326L4.37998 101.069C1.20667 104.242 1.20667 109.447 4.37998 112.62C7.55329 115.793 12.7575 115.793 15.9308 112.62L42.9674 85.5834C49.314 87.6144 56.5492 86.2181 61.6265 81.1408C66.323 76.4443 67.9731 69.8438 66.4499 63.878ZM10.2189 109.828C8.44181 109.828 7.17249 108.558 7.17249 106.781C7.17249 105.131 8.44181 103.735 10.2189 103.735C11.869 103.735 13.2652 105.131 13.2652 106.781C13.2652 108.558 11.869 109.828 10.2189 109.828Z" fill="#FBA300"/>
<path d="M59.4348 57.3142L60.7444 62.4677L56.8918 66.3469L51.7295 65.0726L50.4198 59.9192L54.2725 56.04L59.4348 57.3142Z" fill="#FBA300"/>
<rect x="85" y="69" width="4" height="42" fill="#FFA600"/>
<path d="M109 72H113V110H109V72Z" fill="#FFA600"/>
<rect x="77" y="106" width="43" height="17" fill="#FFA600"/>
<rect x="77" y="58" width="43" height="17" fill="#FFA600"/>
<rect x="77" width="43" height="17" fill="#FFA600"/>
<path d="M108 141.071C108 143.233 107.355 145.346 106.146 147.143C104.937 148.94 103.22 150.341 101.21 151.168C99.1995 151.995 96.9878 152.212 94.854 151.79C92.7202 151.368 90.7602 150.327 89.2218 148.799C87.6835 147.271 86.6358 145.323 86.2114 143.203C85.7869 141.084 86.0048 138.886 86.8373 136.889C87.6699 134.892 89.0798 133.185 90.8887 131.985C92.6977 130.784 94.8244 130.143 97 130.143L97 122.857L97 118" stroke="#FFA600" stroke-width="4"/>
</svg>
