<svg width="215" height="215" viewBox="0 0 215 215" fill="none" xmlns="http://www.w3.org/2000/svg">
<path fill-rule="evenodd" clip-rule="evenodd" d="M206.785 91.8823L206.785 45.9553L202.352 45.9553L202.352 91.8823L206.785 91.8823ZM189.553 91.8823L189.553 45.9553L179.514 45.9553L179.514 91.8823L189.553 91.8823ZM179.514 98.4075L189.553 98.4075L189.553 117.329L179.514 117.329L179.514 98.4075ZM166.715 91.8823L166.715 45.9553L156.676 45.9553L156.676 91.8823L166.715 91.8823ZM156.676 98.4075L166.715 98.4075L166.715 117.329L156.676 117.329L156.676 98.4075ZM143.877 91.8823L143.877 45.9553L133.838 45.9553L133.838 91.8823L143.877 91.8823ZM133.838 98.4075L143.877 98.4075L143.877 117.329L133.838 117.329L133.838 98.4075ZM121.039 91.8823L121.039 45.9553L111 45.9553L111 91.8823L121.039 91.8823ZM111 98.4075L121.039 98.4075L121.039 117.329L111 117.329L111 98.4075ZM111 39.4301L121.039 39.4301L121.039 32L111 32L111 39.4301ZM133.838 39.4301L143.877 39.4301L143.877 32L133.838 32L133.838 39.4301ZM156.676 39.4301L166.715 39.4301L166.715 32L156.676 32L156.676 39.4301ZM179.514 39.4301L189.553 39.4301L189.553 32L179.514 32L179.514 39.4301ZM202.352 39.4301L206.785 39.4301L206.785 32L202.352 32L202.352 39.4301ZM202.352 98.4075L206.785 98.4075L206.785 117.329L202.352 117.329L202.352 98.4075Z" fill="#FFA600"/>
<path d="M206.959 104.933L104.397 104.933L104.397 98.4075L206.959 98.4075L206.959 104.933Z" fill="#FFA600"/>
<path d="M206.959 52.7894L104.042 52.7894L104.042 45.6917L206.959 45.6917L206.959 52.7894Z" fill="#FFA600"/>
<circle cx="119.568" cy="94.9323" r="47.4661" fill="#262626"/>
<path fill-rule="evenodd" clip-rule="evenodd" d="M96.2437 118.209C109.034 130.999 129.771 130.999 142.561 118.209C155.351 105.419 155.351 84.6819 142.561 71.8918C129.771 59.1016 109.034 59.1016 96.2437 71.8918C83.4535 84.6819 83.4535 105.419 96.2437 118.209ZM89.1453 125.307C105.856 142.018 132.949 142.018 149.659 125.307C166.37 108.597 166.37 81.5038 149.659 64.7933C132.949 48.0828 105.856 48.0828 89.1453 64.7933C72.4347 81.5038 72.4347 108.597 89.1453 125.307Z" fill="#FFA600"/>
<path fill-rule="evenodd" clip-rule="evenodd" d="M77.4323 130.099L88.6123 118.919L95.7107 126.017L84.5307 137.197L77.4323 130.099Z" fill="#FFA600"/>
<path fill-rule="evenodd" clip-rule="evenodd" d="M75.9248 126.993L47.5311 155.387C44.2968 158.621 44.2968 163.865 47.5311 167.099C50.7654 170.334 56.0092 170.334 59.2435 167.099L87.6372 138.706L75.9248 126.993Z" fill="#FFA600"/>
<mask id="mask0" mask-type="alpha" maskUnits="userSpaceOnUse" x="83" y="52" width="83" height="83">
<rect x="142.67" y="134.923" width="82.3173" height="19.3245" transform="rotate(-90 142.67 134.923)" fill="#FDBA05"/>
<path fill-rule="evenodd" clip-rule="evenodd" d="M98.249 88.2781L98.249 134.923L117.824 134.923L117.824 88.2781L98.249 88.2781ZM117.824 80.2932L117.824 52.6059L98.249 52.6059L98.249 80.2932L117.824 80.2932Z" fill="#FDBA05"/>
<path fill-rule="evenodd" clip-rule="evenodd" d="M83.8994 107.295L164.209 107.295L165.328 88.2781L131.961 88.2781L131.961 90.2921L128.848 94.9782L132.883 101.043L126.9 96.6322L128.05 88.2781L85.0188 88.2781L83.8994 107.295Z" fill="#FDBA05"/>
</mask>
<g mask="url(#mask0)">
<circle cx="117.854" cy="97.8107" r="29.6359" transform="rotate(45 117.854 97.8107)" fill="#FFA600"/>
</g>
</svg>
