<svg width="205" height="121" viewBox="0 0 205 121" fill="none" xmlns="http://www.w3.org/2000/svg">
<path d="M53 7H205V26H53V7Z" fill="#FFA600"/>
<path d="M72.8696 21H96L77.7391 116H68L72.8696 21Z" fill="#FFA600"/>
<rect x="109.803" width="48.1591" height="25.9318" fill="#FFA600"/>
<rect y="116" width="205" height="5" fill="#FFA600"/>
<rect x="125.855" y="19.7576" width="2.4697" height="56.803" fill="#FFA600"/>
<rect x="138.204" y="19.7576" width="2.4697" height="55.5682" fill="#FFA600"/>
<rect x="122" y="70" width="22.2273" height="8.64394" fill="#FFA600"/>
<path d="M138.204 88.2917C138.204 89.3907 137.879 90.4651 137.268 91.3789C136.657 92.2927 135.79 93.0049 134.774 93.4255C133.759 93.8461 132.641 93.9561 131.564 93.7417C130.486 93.5273 129.496 92.9981 128.718 92.221C127.941 91.4438 127.412 90.4537 127.198 89.3758C126.983 88.2979 127.093 87.1806 127.514 86.1652C127.934 85.1498 128.647 84.282 129.56 83.6714C130.474 83.0608 131.549 82.7349 132.648 82.7349L132.648 79.0303L132.648 76.5606" stroke="#FFA600" stroke-width="2"/>
<path d="M91.6826 26L75.1065 37.4038L75.7327 26.1508L91.6826 26Z" fill="#262626"/>
<path d="M74.1482 41.8733L91.3924 29.8137L89.1634 41.7314L74.1482 41.8733Z" fill="#262626"/>
<path d="M88.1772 44.877L74.1163 54.5504L74.6475 45.0049L88.1772 44.877Z" fill="#262626"/>
<path d="M73.3038 58.3417L87.9314 48.112L86.0406 58.2214L73.3038 58.3417Z" fill="#262626"/>
<path d="M85.3274 60.7876L73.1416 69.1711L73.602 60.8984L85.3274 60.7876Z" fill="#262626"/>
<path d="M72.4371 72.4568L85.1141 63.5912L83.4754 72.3524L72.4371 72.4568Z" fill="#262626"/>
<path d="M82.4588 74.6983L72.1475 81.7921L72.5371 74.7921L82.4588 74.6983Z" fill="#262626"/>
<path d="M71.5516 84.5723L82.2783 77.0706L80.8918 84.484L71.5516 84.5723Z" fill="#262626"/>
<path d="M80.5717 86.6582L71.1977 93.1072L71.5519 86.7435L80.5717 86.6582Z" fill="#262626"/>
<path d="M70.656 95.6347L80.4078 88.8149L79.1473 95.5544L70.656 95.6347Z" fill="#262626"/>
</svg>
