<svg width="185" height="109" viewBox="0 0 185 109" fill="none" xmlns="http://www.w3.org/2000/svg">
<path fill-rule="evenodd" clip-rule="evenodd" d="M148.322 97.4379L148.322 76.6943L146.577 76.6943L146.577 97.4379L148.322 97.4379ZM141.539 97.4379L141.539 76.6943L137.587 76.6943L137.587 97.4379L141.539 97.4379ZM137.587 100.385L141.539 100.385L141.539 109L137.587 109L137.587 100.385ZM132.549 97.4379L132.549 76.6943L128.597 76.6943L128.597 97.4379L132.549 97.4379ZM128.597 100.385L132.549 100.385L132.549 109L128.597 109L128.597 100.385ZM123.558 97.4379L123.558 76.6943L119.607 76.6943L119.607 97.4379L123.558 97.4379ZM119.607 100.385L123.558 100.385L123.558 109L119.607 109L119.607 100.385ZM114.568 97.4379L114.568 76.6943L110.616 76.6943L110.616 97.4379L114.568 97.4379ZM110.616 100.385L114.568 100.385L114.568 109L110.616 109L110.616 100.385ZM110.616 73.7471L114.568 73.7471L114.568 70.4598L110.616 70.4598L110.616 73.7471ZM119.607 73.7471L123.558 73.7471L123.558 70.4598L119.607 70.4598L119.607 73.7471ZM128.597 73.7471L132.549 73.7471L132.549 70.4598L128.597 70.4598L128.597 73.7471ZM137.587 73.7471L141.539 73.7471L141.539 70.4598L137.587 70.4598L137.587 73.7471ZM146.577 73.7471L148.322 73.7471L148.322 70.4598L146.577 70.4598L146.577 73.7471ZM146.577 100.385L148.322 100.385L148.322 109L146.577 109L146.577 100.385Z" fill="#FFA600"/>
<path d="M148.374 103.088L108 103.088L108 100.141L148.374 100.141L148.374 103.088Z" fill="#FFA600"/>
<path d="M148.374 79.5372L107.86 79.5372L107.86 76.3314L148.374 76.3314L148.374 79.5372Z" fill="#FFA600"/>
<mask id="path-4-inside-1" fill="white">
<path fill-rule="evenodd" clip-rule="evenodd" d="M74.793 70.4598L74.793 109H78.7447L78.7447 70.4598L74.793 70.4598ZM83.7833 109L83.7833 70.4598L87.735 70.4598L87.735 109H83.7833ZM92.7736 70.4598L92.7736 109H96.7253L96.7253 70.4598L92.7736 70.4598ZM101.764 70.4598V109H105.716L105.716 70.4598L101.764 70.4598Z"/>
</mask>
<path d="M74.793 109H74.293L74.293 109.5H74.793V109ZM74.793 70.4598L74.793 69.9598L74.293 69.9598V70.4598L74.793 70.4598ZM78.7447 109V109.5H79.2447V109H78.7447ZM78.7447 70.4598L79.2447 70.4598V69.9598H78.7447V70.4598ZM83.7833 70.4598V69.9598L83.2833 69.9598V70.4598L83.7833 70.4598ZM83.7833 109H83.2833V109.5H83.7833V109ZM87.735 70.4598L88.235 70.4598V69.9598L87.735 69.9598V70.4598ZM87.735 109V109.5H88.235V109H87.735ZM92.7736 109H92.2736V109.5H92.7736V109ZM92.7736 70.4598V69.9598L92.2736 69.9598V70.4598L92.7736 70.4598ZM96.7253 109V109.5H97.2253V109H96.7253ZM96.7253 70.4598L97.2253 70.4598V69.9598L96.7253 69.9598V70.4598ZM101.764 109H101.264V109.5H101.764V109ZM101.764 70.4598V69.9598H101.264V70.4598L101.764 70.4598ZM105.716 109V109.5H106.216V109H105.716ZM105.716 70.4598L106.216 70.4598V69.9598H105.716V70.4598ZM75.293 109L75.293 106.706H74.293L74.293 109H75.293ZM75.293 104.871L75.293 100.283H74.293L74.293 104.871H75.293ZM75.293 98.4473L75.293 93.8592H74.293L74.293 98.4473H75.293ZM75.293 92.0239L75.293 87.4358H74.293L74.293 92.0239H75.293ZM75.293 85.6006L75.293 81.0124H74.293L74.293 85.6006H75.293ZM75.293 79.1772L75.293 74.5891H74.293L74.293 79.1772H75.293ZM75.293 72.7538L75.293 70.4598L74.293 70.4598L74.293 72.7538H75.293ZM74.793 70.9598L76.2043 70.9598L76.2043 69.9598L74.793 69.9598L74.793 70.9598ZM77.3334 70.9598L78.7447 70.9598V69.9598L77.3334 69.9598V70.9598ZM78.2447 70.4598V72.7538L79.2447 72.7538V70.4598L78.2447 70.4598ZM78.2447 74.5891L78.2447 79.1772H79.2447L79.2447 74.5891H78.2447ZM78.2447 81.0124L78.2447 85.6006H79.2447V81.0124H78.2447ZM78.2447 87.4358L78.2447 92.0239H79.2447V87.4358L78.2447 87.4358ZM78.2447 93.8592L78.2447 98.4473H79.2447L79.2447 93.8592H78.2447ZM78.2447 100.283V104.871H79.2447V100.283H78.2447ZM78.2447 106.706V109H79.2447L79.2447 106.706H78.2447ZM78.7447 108.5H77.3334V109.5H78.7447V108.5ZM76.2043 108.5H74.793V109.5H76.2043V108.5ZM83.2833 70.4598V72.7538H84.2833V70.4598L83.2833 70.4598ZM83.2833 74.5891V79.1772H84.2833V74.5891H83.2833ZM83.2833 81.0124L83.2833 85.6006H84.2833L84.2833 81.0124H83.2833ZM83.2833 87.4358V92.0239H84.2833V87.4358H83.2833ZM83.2833 93.8592V98.4473H84.2833V93.8592H83.2833ZM83.2833 100.283V104.871H84.2833V100.283H83.2833ZM83.2833 106.706L83.2833 109H84.2833L84.2833 106.706H83.2833ZM83.7833 109.5H85.1946V108.5H83.7833V109.5ZM86.3237 109.5H87.735V108.5H86.3237V109.5ZM88.235 109L88.235 106.706H87.235L87.235 109H88.235ZM88.235 104.871V100.283H87.235V104.871H88.235ZM88.235 98.4473V93.8592H87.235V98.4473H88.235ZM88.235 92.0239V87.4358H87.235V92.0239H88.235ZM88.235 85.6006L88.235 81.0124H87.235L87.235 85.6006H88.235ZM88.235 79.1772V74.5891H87.235V79.1772H88.235ZM88.235 72.7538V70.4598L87.235 70.4598V72.7538L88.235 72.7538ZM87.735 69.9598L86.3237 69.9598V70.9598L87.735 70.9598V69.9598ZM85.1946 69.9598L83.7833 69.9598V70.9598L85.1946 70.9598V69.9598ZM93.2736 109V106.706H92.2736V109H93.2736ZM93.2736 104.871V100.283H92.2736V104.871H93.2736ZM93.2736 98.4473L93.2736 93.8592H92.2736L92.2736 98.4473H93.2736ZM93.2736 92.0239V87.4358H92.2736V92.0239H93.2736ZM93.2736 85.6006V81.0124H92.2736V85.6006H93.2736ZM93.2736 79.1772V74.5891L92.2736 74.5891V79.1772H93.2736ZM93.2736 72.7538V70.4598L92.2736 70.4598V72.7538L93.2736 72.7538ZM92.7736 70.9598L94.1849 70.9598V69.9598L92.7736 69.9598V70.9598ZM95.314 70.9598L96.7253 70.9598V69.9598L95.314 69.9598V70.9598ZM96.2253 70.4598V72.7538H97.2253V70.4598L96.2253 70.4598ZM96.2253 74.5891V79.1772H97.2253V74.5891H96.2253ZM96.2253 81.0124V85.6006H97.2253V81.0124H96.2253ZM96.2253 87.4358V92.0239H97.2253V87.4358H96.2253ZM96.2253 93.8592L96.2253 98.4473H97.2253L97.2253 93.8592H96.2253ZM96.2253 100.283V104.871L97.2253 104.871V100.283H96.2253ZM96.2253 106.706V109H97.2253V106.706H96.2253ZM96.7253 108.5H95.314V109.5H96.7253V108.5ZM94.1849 108.5H92.7736V109.5H94.1849V108.5ZM102.264 109V106.706H101.264V109H102.264ZM102.264 104.871V100.283H101.264V104.871H102.264ZM102.264 98.4473V93.8592H101.264V98.4473H102.264ZM102.264 92.0239V87.4358H101.264V92.0239H102.264ZM102.264 85.6006V81.0124H101.264V85.6006H102.264ZM102.264 79.1772V74.5891H101.264V79.1772H102.264ZM102.264 72.7538V70.4598L101.264 70.4598V72.7538H102.264ZM101.764 70.9598L103.175 70.9598V69.9598L101.764 69.9598V70.9598ZM104.304 70.9598L105.716 70.9598V69.9598L104.304 69.9598V70.9598ZM105.216 70.4598V72.7538H106.216V70.4598L105.216 70.4598ZM105.216 74.5891V79.1772H106.216V74.5891H105.216ZM105.216 81.0124V85.6006H106.216V81.0124H105.216ZM105.216 87.4358V92.0239H106.216V87.4358H105.216ZM105.216 93.8592L105.216 98.4473H106.216L106.216 93.8592H105.216ZM105.216 100.283V104.871H106.216V100.283H105.216ZM105.216 106.706V109H106.216V106.706H105.216ZM105.716 108.5H104.304V109.5H105.716V108.5ZM103.175 108.5H101.764V109.5H103.175V108.5ZM74.793 109H73.793V110H74.793V109ZM74.793 70.4598L74.793 69.4598L73.793 69.4598V70.4598L74.793 70.4598ZM78.7447 109V110H79.7447V109H78.7447ZM78.7447 70.4598L79.7447 70.4598V69.4598L78.7447 69.4598V70.4598ZM83.7833 70.4598V69.4598L82.7833 69.4598V70.4598L83.7833 70.4598ZM83.7833 109H82.7833V110H83.7833V109ZM87.735 70.4598L88.735 70.4598V69.4598L87.735 69.4598V70.4598ZM87.735 109V110H88.735V109H87.735ZM92.7736 109H91.7736V110H92.7736V109ZM92.7736 70.4598V69.4598L91.7736 69.4598V70.4598L92.7736 70.4598ZM96.7253 109V110H97.7253V109H96.7253ZM96.7253 70.4598L97.7253 70.4598V69.4598L96.7253 69.4598V70.4598ZM101.764 109H100.764V110H101.764V109ZM101.764 70.4598V69.4598L100.764 69.4598V70.4598L101.764 70.4598ZM105.716 109V110H106.716V109H105.716ZM105.716 70.4598L106.716 70.4598V69.4598H105.716V70.4598ZM75.793 109V106.706H73.793L73.793 109H75.793ZM75.793 104.871L75.793 100.283H73.793L73.793 104.871H75.793ZM75.793 98.4473L75.793 93.8592H73.793L73.793 98.4473H75.793ZM75.793 92.0239L75.793 87.4358H73.793L73.793 92.0239H75.793ZM75.793 85.6006L75.793 81.0124H73.793L73.793 85.6006H75.793ZM75.793 79.1772L75.793 74.5891H73.793L73.793 79.1772H75.793ZM75.793 72.7538L75.793 70.4598L73.793 70.4598L73.793 72.7538H75.793ZM74.793 71.4598L76.2043 71.4598L76.2043 69.4598L74.793 69.4598L74.793 71.4598ZM77.3334 71.4598L78.7447 71.4598V69.4598L77.3334 69.4598V71.4598ZM77.7447 70.4598V72.7538L79.7447 72.7538V70.4598L77.7447 70.4598ZM77.7447 74.5891L77.7447 79.1772H79.7447L79.7447 74.5891H77.7447ZM77.7447 81.0124L77.7447 85.6006H79.7447V81.0124H77.7447ZM77.7447 87.4358L77.7447 92.0239H79.7447V87.4358L77.7447 87.4358ZM77.7447 93.8592L77.7447 98.4473H79.7447L79.7447 93.8592H77.7447ZM77.7447 100.283V104.871H79.7447V100.283H77.7447ZM77.7447 106.706V109H79.7447L79.7447 106.706H77.7447ZM78.7447 108H77.3334V110H78.7447V108ZM76.2043 108H74.793V110H76.2043V108ZM82.7833 70.4598V72.7538L84.7833 72.7538V70.4598L82.7833 70.4598ZM82.7833 74.5891L82.7833 79.1772H84.7833V74.5891H82.7833ZM82.7833 81.0124V85.6006H84.7833L84.7833 81.0124H82.7833ZM82.7833 87.4358L82.7833 92.0239H84.7833V87.4358H82.7833ZM82.7833 93.8592V98.4473H84.7833V93.8592H82.7833ZM82.7833 100.283L82.7833 104.871H84.7833V100.283H82.7833ZM82.7833 106.706V109H84.7833L84.7833 106.706H82.7833ZM83.7833 110H85.1946V108H83.7833V110ZM86.3237 110H87.735V108H86.3237V110ZM88.735 109L88.735 106.706H86.735L86.735 109H88.735ZM88.735 104.871V100.283H86.735V104.871H88.735ZM88.735 98.4473V93.8592H86.735V98.4473H88.735ZM88.735 92.0239V87.4358H86.735V92.0239H88.735ZM88.735 85.6006L88.735 81.0124H86.735L86.735 85.6006H88.735ZM88.735 79.1772V74.5891H86.735V79.1772H88.735ZM88.735 72.7538V70.4598L86.735 70.4598V72.7538L88.735 72.7538ZM87.735 69.4598L86.3237 69.4598V71.4598H87.735V69.4598ZM85.1946 69.4598L83.7833 69.4598V71.4598H85.1946V69.4598ZM93.7736 109V106.706H91.7736V109H93.7736ZM93.7736 104.871V100.283H91.7736V104.871H93.7736ZM93.7736 98.4473L93.7736 93.8592H91.7736L91.7736 98.4473H93.7736ZM93.7736 92.0239V87.4358H91.7736V92.0239H93.7736ZM93.7736 85.6006V81.0124H91.7736V85.6006H93.7736ZM93.7736 79.1772V74.5891L91.7736 74.5891V79.1772H93.7736ZM93.7736 72.7538V70.4598L91.7736 70.4598V72.7538L93.7736 72.7538ZM92.7736 71.4598H94.1849V69.4598L92.7736 69.4598V71.4598ZM95.314 71.4598H96.7253V69.4598L95.314 69.4598V71.4598ZM95.7253 70.4598V72.7538H97.7253V70.4598L95.7253 70.4598ZM95.7253 74.5891V79.1772H97.7253V74.5891H95.7253ZM95.7253 81.0124V85.6006H97.7253V81.0124H95.7253ZM95.7253 87.4358V92.0239H97.7253V87.4358H95.7253ZM95.7253 93.8592L95.7253 98.4473L97.7253 98.4473L97.7253 93.8592H95.7253ZM95.7253 100.283V104.871L97.7253 104.871V100.283H95.7253ZM95.7253 106.706V109H97.7253V106.706H95.7253ZM96.7253 108H95.314V110H96.7253V108ZM94.1849 108H92.7736V110H94.1849V108ZM102.764 109V106.706H100.764V109H102.764ZM102.764 104.871V100.283H100.764V104.871H102.764ZM102.764 98.4473V93.8592H100.764V98.4473H102.764ZM102.764 92.0239V87.4358H100.764V92.0239H102.764ZM102.764 85.6006V81.0124H100.764V85.6006H102.764ZM102.764 79.1772V74.5891H100.764V79.1772H102.764ZM102.764 72.7538V70.4598L100.764 70.4598V72.7538H102.764ZM101.764 71.4598L103.175 71.4598V69.4598L101.764 69.4598V71.4598ZM104.304 71.4598L105.716 71.4598V69.4598L104.304 69.4598V71.4598ZM104.716 70.4598V72.7538H106.716V70.4598L104.716 70.4598ZM104.716 74.5891V79.1772H106.716V74.5891H104.716ZM104.716 81.0124V85.6006H106.716V81.0124H104.716ZM104.716 87.4358V92.0239H106.716V87.4358H104.716ZM104.716 93.8592L104.716 98.4473H106.716L106.716 93.8592H104.716ZM104.716 100.283V104.871L106.716 104.871V100.283H104.716ZM104.716 106.706V109H106.716V106.706H104.716ZM105.716 108H104.304V110H105.716V108ZM103.175 108H101.764V110H103.175V108Z" fill="#FFA600" mask="url(#path-4-inside-1)"/>
<mask id="path-6-inside-2" fill="white">
<path fill-rule="evenodd" clip-rule="evenodd" d="M39 70.4598L39 109H42.9518L42.9518 70.4598L39 70.4598ZM47.9903 109L47.9903 70.4598L51.9421 70.4598L51.9421 109H47.9903ZM56.9806 70.4598L56.9806 109H60.9324L60.9324 70.4598L56.9806 70.4598ZM65.9709 70.4598V109H69.9227L69.9227 70.4598L65.9709 70.4598Z"/>
</mask>
<path d="M39 109H38.5L38.5 109.5H39V109ZM39 70.4598L39 69.9598L38.5 69.9598V70.4598L39 70.4598ZM42.9518 109V109.5H43.4518V109H42.9518ZM42.9518 70.4598L43.4518 70.4598V69.9598H42.9518V70.4598ZM47.9903 70.4598V69.9598L47.4903 69.9598V70.4598L47.9903 70.4598ZM47.9903 109H47.4903V109.5H47.9903V109ZM51.9421 70.4598L52.4421 70.4598V69.9598L51.9421 69.9598V70.4598ZM51.9421 109V109.5H52.4421V109H51.9421ZM56.9806 109H56.4806V109.5H56.9806V109ZM56.9806 70.4598V69.9598L56.4806 69.9598V70.4598L56.9806 70.4598ZM60.9324 109V109.5H61.4324V109H60.9324ZM60.9324 70.4598L61.4324 70.4598V69.9598L60.9324 69.9598V70.4598ZM65.9709 109H65.4709V109.5H65.9709V109ZM65.9709 70.4598V69.9598H65.4709V70.4598L65.9709 70.4598ZM69.9227 109V109.5H70.4227V109H69.9227ZM69.9227 70.4598L70.4227 70.4598V69.9598H69.9227V70.4598ZM39.5 109L39.5 106.706H38.5L38.5 109H39.5ZM39.5 104.871L39.5 100.283H38.5L38.5 104.871H39.5ZM39.5 98.4473L39.5 93.8592H38.5L38.5 98.4473H39.5ZM39.5 92.0239L39.5 87.4358H38.5L38.5 92.0239H39.5ZM39.5 85.6006L39.5 81.0124H38.5L38.5 85.6006H39.5ZM39.5 79.1772L39.5 74.5891H38.5L38.5 79.1772H39.5ZM39.5 72.7538L39.5 70.4598L38.5 70.4598L38.5 72.7538H39.5ZM39 70.9598L40.4113 70.9598L40.4113 69.9598L39 69.9598L39 70.9598ZM41.5404 70.9598L42.9518 70.9598V69.9598L41.5404 69.9598V70.9598ZM42.4518 70.4598V72.7538L43.4518 72.7538V70.4598L42.4518 70.4598ZM42.4518 74.5891L42.4518 79.1772H43.4518L43.4518 74.5891H42.4518ZM42.4518 81.0124L42.4518 85.6006H43.4518V81.0124H42.4518ZM42.4518 87.4358L42.4518 92.0239H43.4518V87.4358L42.4518 87.4358ZM42.4518 93.8592L42.4518 98.4473H43.4518L43.4518 93.8592H42.4518ZM42.4518 100.283V104.871H43.4518V100.283H42.4518ZM42.4518 106.706V109H43.4518L43.4518 106.706H42.4518ZM42.9518 108.5H41.5404V109.5H42.9518V108.5ZM40.4113 108.5H39V109.5H40.4113V108.5ZM47.4903 70.4598V72.7538H48.4903V70.4598L47.4903 70.4598ZM47.4903 74.5891V79.1772H48.4903V74.5891H47.4903ZM47.4903 81.0124L47.4903 85.6006H48.4903L48.4903 81.0124H47.4903ZM47.4903 87.4358V92.0239H48.4903V87.4358H47.4903ZM47.4903 93.8592V98.4473H48.4903V93.8592H47.4903ZM47.4903 100.283V104.871H48.4903V100.283H47.4903ZM47.4903 106.706L47.4903 109H48.4903L48.4903 106.706H47.4903ZM47.9903 109.5H49.4016V108.5H47.9903V109.5ZM50.5307 109.5H51.9421V108.5H50.5307V109.5ZM52.4421 109L52.4421 106.706H51.4421L51.4421 109H52.4421ZM52.4421 104.871V100.283H51.4421V104.871H52.4421ZM52.4421 98.4473V93.8592H51.4421V98.4473H52.4421ZM52.4421 92.0239V87.4358H51.4421V92.0239H52.4421ZM52.4421 85.6006L52.4421 81.0124H51.4421L51.4421 85.6006H52.4421ZM52.4421 79.1772V74.5891H51.4421V79.1772H52.4421ZM52.4421 72.7538V70.4598L51.4421 70.4598V72.7538L52.4421 72.7538ZM51.9421 69.9598L50.5307 69.9598V70.9598L51.9421 70.9598V69.9598ZM49.4016 69.9598L47.9903 69.9598V70.9598L49.4016 70.9598V69.9598ZM57.4806 109V106.706H56.4806V109H57.4806ZM57.4806 104.871V100.283H56.4806V104.871H57.4806ZM57.4806 98.4473L57.4806 93.8592H56.4806L56.4806 98.4473H57.4806ZM57.4806 92.0239V87.4358H56.4806V92.0239H57.4806ZM57.4806 85.6006V81.0124H56.4806V85.6006H57.4806ZM57.4806 79.1772V74.5891L56.4806 74.5891V79.1772H57.4806ZM57.4806 72.7538V70.4598L56.4806 70.4598V72.7538L57.4806 72.7538ZM56.9806 70.9598L58.3919 70.9598V69.9598L56.9806 69.9598V70.9598ZM59.521 70.9598L60.9324 70.9598V69.9598L59.521 69.9598V70.9598ZM60.4324 70.4598V72.7538H61.4324V70.4598L60.4324 70.4598ZM60.4324 74.5891V79.1772H61.4324V74.5891H60.4324ZM60.4324 81.0124V85.6006H61.4324V81.0124H60.4324ZM60.4324 87.4358V92.0239H61.4324V87.4358H60.4324ZM60.4324 93.8592L60.4324 98.4473H61.4324L61.4324 93.8592H60.4324ZM60.4324 100.283V104.871L61.4324 104.871V100.283H60.4324ZM60.4324 106.706V109H61.4324V106.706H60.4324ZM60.9324 108.5H59.521V109.5H60.9324V108.5ZM58.392 108.5H56.9806V109.5H58.392V108.5ZM66.4709 109V106.706H65.4709V109H66.4709ZM66.4709 104.871V100.283H65.4709V104.871H66.4709ZM66.4709 98.4473V93.8592H65.4709V98.4473H66.4709ZM66.4709 92.0239V87.4358H65.4709V92.0239H66.4709ZM66.4709 85.6006V81.0124H65.4709V85.6006H66.4709ZM66.4709 79.1772V74.5891H65.4709V79.1772H66.4709ZM66.4709 72.7538V70.4598L65.4709 70.4598V72.7538H66.4709ZM65.9709 70.9598L67.3822 70.9598V69.9598L65.9709 69.9598V70.9598ZM68.5113 70.9598L69.9227 70.9598V69.9598L68.5113 69.9598V70.9598ZM69.4227 70.4598V72.7538H70.4227V70.4598L69.4227 70.4598ZM69.4227 74.5891V79.1772H70.4227V74.5891H69.4227ZM69.4227 81.0124V85.6006H70.4227V81.0124H69.4227ZM69.4227 87.4358V92.0239H70.4227V87.4358H69.4227ZM69.4227 93.8592L69.4227 98.4473H70.4227L70.4227 93.8592H69.4227ZM69.4227 100.283V104.871H70.4227V100.283H69.4227ZM69.4227 106.706V109H70.4227V106.706H69.4227ZM69.9227 108.5H68.5113V109.5H69.9227V108.5ZM67.3823 108.5H65.9709V109.5H67.3823V108.5ZM39 109H38V110H39V109ZM39 70.4598L39 69.4598L38 69.4598V70.4598L39 70.4598ZM42.9518 109V110H43.9518V109H42.9518ZM42.9518 70.4598L43.9518 70.4598V69.4598L42.9518 69.4598V70.4598ZM47.9903 70.4598V69.4598L46.9903 69.4598V70.4598L47.9903 70.4598ZM47.9903 109H46.9903V110H47.9903V109ZM51.9421 70.4598L52.9421 70.4598V69.4598L51.9421 69.4598V70.4598ZM51.9421 109V110H52.9421V109H51.9421ZM56.9806 109H55.9806V110H56.9806V109ZM56.9806 70.4598V69.4598L55.9806 69.4598V70.4598L56.9806 70.4598ZM60.9324 109V110H61.9324V109H60.9324ZM60.9324 70.4598L61.9324 70.4598V69.4598L60.9324 69.4598V70.4598ZM65.9709 109H64.9709V110H65.9709V109ZM65.9709 70.4598V69.4598L64.9709 69.4598V70.4598L65.9709 70.4598ZM69.9227 109V110H70.9227V109H69.9227ZM69.9227 70.4598L70.9227 70.4598V69.4598H69.9227V70.4598ZM40 109V106.706H38L38 109H40ZM40 104.871L40 100.283H38L38 104.871H40ZM40 98.4473L40 93.8592H38L38 98.4473H40ZM40 92.0239L40 87.4358H38L38 92.0239H40ZM40 85.6006L40 81.0124H38L38 85.6006H40ZM40 79.1772L40 74.5891H38L38 79.1772H40ZM40 72.7538L40 70.4598L38 70.4598L38 72.7538H40ZM39 71.4598L40.4113 71.4598L40.4113 69.4598L39 69.4598L39 71.4598ZM41.5404 71.4598L42.9518 71.4598V69.4598L41.5404 69.4598V71.4598ZM41.9518 70.4598V72.7538L43.9518 72.7538V70.4598L41.9518 70.4598ZM41.9518 74.5891L41.9518 79.1772H43.9518L43.9518 74.5891H41.9518ZM41.9518 81.0124L41.9518 85.6006H43.9518V81.0124H41.9518ZM41.9518 87.4358L41.9518 92.0239H43.9518V87.4358L41.9518 87.4358ZM41.9518 93.8592L41.9518 98.4473H43.9518L43.9518 93.8592H41.9518ZM41.9518 100.283V104.871H43.9518V100.283H41.9518ZM41.9518 106.706V109H43.9518L43.9518 106.706H41.9518ZM42.9518 108H41.5404V110H42.9518V108ZM40.4113 108H39V110H40.4113V108ZM46.9903 70.4598V72.7538L48.9903 72.7538V70.4598L46.9903 70.4598ZM46.9903 74.5891L46.9903 79.1772H48.9903V74.5891H46.9903ZM46.9903 81.0124V85.6006H48.9903L48.9903 81.0124H46.9903ZM46.9903 87.4358L46.9903 92.0239H48.9903V87.4358H46.9903ZM46.9903 93.8592V98.4473H48.9903V93.8592H46.9903ZM46.9903 100.283L46.9903 104.871H48.9903V100.283H46.9903ZM46.9903 106.706V109H48.9903L48.9903 106.706H46.9903ZM47.9903 110H49.4016V108H47.9903V110ZM50.5307 110H51.9421V108H50.5307V110ZM52.9421 109L52.9421 106.706H50.9421L50.9421 109H52.9421ZM52.9421 104.871V100.283H50.9421V104.871H52.9421ZM52.9421 98.4473V93.8592H50.9421V98.4473H52.9421ZM52.9421 92.0239V87.4358H50.9421V92.0239H52.9421ZM52.9421 85.6006L52.9421 81.0124H50.9421L50.9421 85.6006H52.9421ZM52.9421 79.1772V74.5891H50.9421V79.1772H52.9421ZM52.9421 72.7538V70.4598L50.9421 70.4598V72.7538L52.9421 72.7538ZM51.9421 69.4598L50.5307 69.4598V71.4598H51.9421V69.4598ZM49.4016 69.4598L47.9903 69.4598V71.4598H49.4016V69.4598ZM57.9806 109V106.706H55.9806V109H57.9806ZM57.9806 104.871V100.283H55.9806V104.871H57.9806ZM57.9806 98.4473L57.9806 93.8592H55.9806L55.9806 98.4473H57.9806ZM57.9806 92.0239V87.4358H55.9806V92.0239H57.9806ZM57.9806 85.6006V81.0124H55.9806V85.6006H57.9806ZM57.9806 79.1772V74.5891L55.9806 74.5891V79.1772H57.9806ZM57.9806 72.7538V70.4598L55.9806 70.4598V72.7538L57.9806 72.7538ZM56.9806 71.4598H58.3919V69.4598L56.9806 69.4598V71.4598ZM59.521 71.4598H60.9324V69.4598L59.521 69.4598V71.4598ZM59.9324 70.4598V72.7538H61.9324V70.4598L59.9324 70.4598ZM59.9324 74.5891V79.1772H61.9324V74.5891H59.9324ZM59.9324 81.0124V85.6006H61.9324V81.0124H59.9324ZM59.9324 87.4358V92.0239H61.9324V87.4358H59.9324ZM59.9324 93.8592L59.9324 98.4473L61.9324 98.4473L61.9324 93.8592H59.9324ZM59.9324 100.283V104.871L61.9324 104.871V100.283H59.9324ZM59.9324 106.706V109H61.9324V106.706H59.9324ZM60.9324 108H59.521V110H60.9324V108ZM58.392 108H56.9806V110H58.392V108ZM66.9709 109V106.706H64.9709V109H66.9709ZM66.9709 104.871V100.283H64.9709V104.871H66.9709ZM66.9709 98.4473V93.8592H64.9709V98.4473H66.9709ZM66.9709 92.0239V87.4358H64.9709V92.0239H66.9709ZM66.9709 85.6006V81.0124H64.9709V85.6006H66.9709ZM66.9709 79.1772V74.5891H64.9709V79.1772H66.9709ZM66.9709 72.7538V70.4598L64.9709 70.4598V72.7538H66.9709ZM65.9709 71.4598L67.3822 71.4598V69.4598L65.9709 69.4598V71.4598ZM68.5113 71.4598L69.9227 71.4598V69.4598L68.5113 69.4598V71.4598ZM68.9227 70.4598V72.7538H70.9227V70.4598L68.9227 70.4598ZM68.9227 74.5891V79.1772H70.9227V74.5891H68.9227ZM68.9227 81.0124V85.6006H70.9227V81.0124H68.9227ZM68.9227 87.4358V92.0239H70.9227V87.4358H68.9227ZM68.9227 93.8592L68.9227 98.4473H70.9227L70.9227 93.8592H68.9227ZM68.9227 100.283V104.871L70.9227 104.871V100.283H68.9227ZM68.9227 106.706V109H70.9227V106.706H68.9227ZM69.9227 108H68.5113V110H69.9227V108ZM67.3823 108H65.9709V110H67.3823V108Z" fill="#FDBA05" mask="url(#path-6-inside-2)"/>
<mask id="path-8-inside-3" fill="white">
<path fill-rule="evenodd" clip-rule="evenodd" d="M21.1875 70.4598L21.1875 109H25.1393L25.1393 70.4598L21.1875 70.4598ZM30.1778 70.4598V109H34.1296L34.1296 70.4598L30.1778 70.4598Z"/>
</mask>
<path d="M21.1875 109H20.6875L20.6875 109.5H21.1875L21.1875 109ZM21.1875 70.4598L21.1875 69.9598L20.6875 69.9598V70.4598L21.1875 70.4598ZM25.1393 109V109.5H25.6393V109H25.1393ZM25.1393 70.4598L25.6393 70.4598V69.9598L25.1393 69.9598V70.4598ZM30.1778 109H29.6778V109.5H30.1778V109ZM30.1778 70.4598V69.9598H29.6778V70.4598L30.1778 70.4598ZM34.1296 109V109.5H34.6296V109H34.1296ZM34.1296 70.4598L34.6296 70.4598V69.9598H34.1296V70.4598ZM21.6875 109L21.6875 106.706H20.6875L20.6875 109H21.6875ZM21.6875 104.871L21.6875 100.283H20.6875L20.6875 104.871H21.6875ZM21.6875 98.4473L21.6875 93.8592H20.6875L20.6875 98.4473H21.6875ZM21.6875 92.0239L21.6875 87.4358H20.6875L20.6875 92.0239H21.6875ZM21.6875 85.6006L21.6875 81.0124H20.6875L20.6875 85.6006H21.6875ZM21.6875 79.1772L21.6875 74.5891H20.6875L20.6875 79.1772H21.6875ZM21.6875 72.7538L21.6875 70.4598L20.6875 70.4598L20.6875 72.7538H21.6875ZM21.1875 70.9598L22.5988 70.9598V69.9598L21.1875 69.9598L21.1875 70.9598ZM23.7279 70.9598L25.1393 70.9598V69.9598L23.7279 69.9598L23.7279 70.9598ZM24.6393 70.4598V72.7538H25.6393V70.4598L24.6393 70.4598ZM24.6393 74.5891L24.6393 79.1772H25.6393L25.6393 74.5891H24.6393ZM24.6393 81.0124L24.6393 85.6006H25.6393L25.6393 81.0124H24.6393ZM24.6393 87.4358L24.6393 92.0239H25.6393V87.4358H24.6393ZM24.6393 93.8592L24.6393 98.4473H25.6393L25.6393 93.8592H24.6393ZM24.6393 100.283L24.6393 104.871H25.6393L25.6393 100.283H24.6393ZM24.6393 106.706V109H25.6393V106.706H24.6393ZM25.1393 108.5H23.7279V109.5H25.1393V108.5ZM22.5988 108.5H21.1875L21.1875 109.5H22.5988L22.5988 108.5ZM30.6778 109V106.706H29.6778V109H30.6778ZM30.6778 104.871V100.283H29.6778V104.871H30.6778ZM30.6778 98.4473V93.8592H29.6778V98.4473H30.6778ZM30.6778 92.0239V87.4358H29.6778V92.0239H30.6778ZM30.6778 85.6006V81.0124L29.6778 81.0124V85.6006H30.6778ZM30.6778 79.1772V74.5891H29.6778V79.1772H30.6778ZM30.6778 72.7538V70.4598L29.6778 70.4598V72.7538H30.6778ZM30.1778 70.9598L31.5891 70.9598V69.9598L30.1778 69.9598V70.9598ZM32.7182 70.9598L34.1296 70.9598V69.9598L32.7182 69.9598V70.9598ZM33.6296 70.4598V72.7538H34.6296V70.4598L33.6296 70.4598ZM33.6296 74.5891V79.1772H34.6296V74.5891H33.6296ZM33.6296 81.0124L33.6296 85.6006L34.6296 85.6006L34.6296 81.0124H33.6296ZM33.6296 87.4358V92.0239H34.6296V87.4358H33.6296ZM33.6296 93.8592V98.4473H34.6296V93.8592H33.6296ZM33.6296 100.283V104.871H34.6296V100.283H33.6296ZM33.6296 106.706L33.6296 109H34.6296L34.6296 106.706H33.6296ZM34.1296 108.5H32.7182V109.5H34.1296V108.5ZM31.5891 108.5H30.1778V109.5H31.5891V108.5ZM21.1875 109H20.1875V110H21.1875L21.1875 109ZM21.1875 70.4598L21.1875 69.4598L20.1875 69.4598V70.4598L21.1875 70.4598ZM25.1393 109V110H26.1393V109H25.1393ZM25.1393 70.4598L26.1393 70.4598V69.4598L25.1393 69.4598V70.4598ZM30.1778 109H29.1778V110H30.1778V109ZM30.1778 70.4598V69.4598L29.1778 69.4598V70.4598L30.1778 70.4598ZM34.1296 109V110H35.1296V109H34.1296ZM34.1296 70.4598L35.1296 70.4598V69.4598H34.1296V70.4598ZM22.1875 109V106.706H20.1875L20.1875 109H22.1875ZM22.1875 104.871L22.1875 100.283L20.1875 100.283L20.1875 104.871H22.1875ZM22.1875 98.4473L22.1875 93.8592H20.1875L20.1875 98.4473H22.1875ZM22.1875 92.0239L22.1875 87.4358H20.1875L20.1875 92.0239H22.1875ZM22.1875 85.6006L22.1875 81.0124H20.1875L20.1875 85.6006H22.1875ZM22.1875 79.1772L22.1875 74.5891H20.1875L20.1875 79.1772H22.1875ZM22.1875 72.7538L22.1875 70.4598L20.1875 70.4598L20.1875 72.7538L22.1875 72.7538ZM21.1875 71.4598H22.5988L22.5988 69.4598L21.1875 69.4598L21.1875 71.4598ZM23.7279 71.4598H25.1393V69.4598L23.7279 69.4598L23.7279 71.4598ZM24.1393 70.4598V72.7538H26.1393V70.4598L24.1393 70.4598ZM24.1393 74.5891L24.1393 79.1772H26.1393L26.1393 74.5891H24.1393ZM24.1393 81.0124L24.1393 85.6006H26.1393L26.1393 81.0124H24.1393ZM24.1393 87.4358L24.1393 92.0239H26.1393V87.4358H24.1393ZM24.1393 93.8592L24.1393 98.4473H26.1393L26.1393 93.8592H24.1393ZM24.1393 100.283L24.1393 104.871H26.1393L26.1393 100.283H24.1393ZM24.1393 106.706V109H26.1393V106.706H24.1393ZM25.1393 108H23.7279V110H25.1393V108ZM22.5988 108H21.1875L21.1875 110H22.5988L22.5988 108ZM31.1778 109V106.706H29.1778V109H31.1778ZM31.1778 104.871V100.283H29.1778V104.871H31.1778ZM31.1778 98.4473V93.8592H29.1778V98.4473H31.1778ZM31.1778 92.0239V87.4358H29.1778L29.1778 92.0239H31.1778ZM31.1778 85.6006V81.0124L29.1778 81.0124V85.6006H31.1778ZM31.1778 79.1772V74.5891H29.1778V79.1772H31.1778ZM31.1778 72.7538V70.4598L29.1778 70.4598V72.7538L31.1778 72.7538ZM30.1778 71.4598L31.5891 71.4598V69.4598L30.1778 69.4598V71.4598ZM32.7182 71.4598L34.1296 71.4598V69.4598L32.7182 69.4598V71.4598ZM33.1296 70.4598V72.7538H35.1296V70.4598L33.1296 70.4598ZM33.1296 74.5891V79.1772H35.1296V74.5891H33.1296ZM33.1296 81.0124L33.1296 85.6006L35.1296 85.6006L35.1296 81.0124H33.1296ZM33.1296 87.4358V92.0239H35.1296V87.4358H33.1296ZM33.1296 93.8592V98.4473H35.1296V93.8592H33.1296ZM33.1296 100.283V104.871H35.1296V100.283H33.1296ZM33.1296 106.706L33.1296 109H35.1296L35.1296 106.706H33.1296ZM34.1296 108H32.7182V110H34.1296L34.1296 108ZM31.5891 108H30.1778L30.1778 110H31.5891V108Z" fill="#FFA600" mask="url(#path-8-inside-3)"/>
<path fill-rule="evenodd" clip-rule="evenodd" d="M40.5145 103.089L35.9619 103.089H0.140625L0.140625 100.141H35.9619L40.5145 100.141L73.4277 100.141L76.3358 100.141H113.802V103.089H76.3358H40.5145Z" fill="#FFA600"/>
<path fill-rule="evenodd" clip-rule="evenodd" d="M40.5137 79.5372L35.8232 79.5372H3.10385e-07L0 76.3314H35.8232L40.5137 76.3314H76.337H113.803V79.5372H76.337L73.2891 79.5372L40.5137 79.5372Z" fill="#FFA600"/>
<path fill-rule="evenodd" clip-rule="evenodd" d="M185 97.438L185 76.6943L183.242 76.6943L183.242 97.438L185 97.438ZM178.164 97.438L178.164 76.6943L174.181 76.6943L174.181 97.438L178.164 97.438ZM174.181 100.385L178.164 100.385L178.164 109L174.181 109L174.181 100.385ZM169.103 97.438L169.103 76.6943L165.121 76.6943L165.121 97.438L169.103 97.438ZM165.121 100.385L169.103 100.385L169.103 109L165.121 109L165.121 100.385ZM160.043 97.438L160.043 76.6943L156.06 76.6943L156.06 97.438L160.043 97.438ZM156.06 100.385L160.043 100.385L160.043 109L156.06 109L156.06 100.385ZM150.983 97.438L150.983 76.6943L147 76.6943L147 97.438L150.983 97.438ZM147 100.385L150.983 100.385L150.983 109L147 109L147 100.385ZM147 73.7471L150.983 73.7471L150.983 70.5L147 70.5L147 73.7471ZM156.06 73.7471L160.043 73.7471L160.043 70.5L156.06 70.5L156.06 73.7471ZM165.121 73.7471L169.103 73.7471L169.103 70.5L165.121 70.5L165.121 73.7471ZM174.181 73.7471L178.164 73.7471L178.164 70.5L174.181 70.5L174.181 73.7471ZM183.242 73.7471L185 73.7471L185 70.5L183.242 70.5L183.242 73.7471ZM183.242 100.385L185 100.385L185 109L183.242 109L183.242 100.385Z" fill="#FFA600"/>
<path d="M184.591 103.088L144.217 103.088L144.217 100.141L184.591 100.141L184.591 103.088Z" fill="#FFA600"/>
<path d="M184.591 79.5372L144.077 79.5372L144.077 76.3314L184.591 76.3314L184.591 79.5372Z" fill="#FFA600"/>
<path fill-rule="evenodd" clip-rule="evenodd" d="M148.322 26.9781L148.322 6.23448L146.577 6.23448L146.577 26.9781L148.322 26.9781ZM141.539 26.9781L141.539 6.23448L137.587 6.23448L137.587 26.9781L141.539 26.9781ZM137.587 29.9253L141.539 29.9253L141.539 38.5402L137.587 38.5402L137.587 29.9253ZM132.549 26.9781L132.549 6.23448L128.597 6.23448L128.597 26.9781L132.549 26.9781ZM128.597 29.9253L132.549 29.9253L132.549 38.5402L128.597 38.5402L128.597 29.9253ZM123.558 26.9781L123.558 6.23448L119.607 6.23448L119.607 26.9781L123.558 26.9781ZM119.607 29.9253L123.558 29.9253L123.558 38.5402L119.607 38.5402L119.607 29.9253ZM114.568 26.9781L114.568 6.23448L110.616 6.23448L110.616 26.9781L114.568 26.9781ZM110.616 29.9253L114.568 29.9253L114.568 38.5402L110.616 38.5402L110.616 29.9253ZM110.616 3.28729L114.568 3.28729L114.568 7.4312e-06L110.616 7.62939e-06L110.616 3.28729ZM119.607 3.28729L123.558 3.28729L123.558 6.98031e-06L119.607 7.1785e-06L119.607 3.28729ZM128.597 3.28729L132.549 3.28729L132.549 6.52942e-06L128.597 6.72761e-06L128.597 3.28729ZM137.587 3.28729L141.539 3.28729L141.539 6.07853e-06L137.587 6.27672e-06L137.587 3.28729ZM146.577 3.28729L148.322 3.28729L148.322 5.73832e-06L146.577 9.64053e-06L146.577 3.28729ZM146.577 29.9253L148.322 29.9253L148.322 38.5402L146.577 38.5402L146.577 29.9253Z" fill="#FFA600"/>
<path d="M148.374 32.6287L108 32.6287L108 29.6815L148.374 29.6815L148.374 32.6287Z" fill="#FFA600"/>
<path d="M148.374 9.07745L107.86 9.07746L107.86 5.87165L148.374 5.87164L148.374 9.07745Z" fill="#FFA600"/>
<mask id="path-18-inside-4" fill="white">
<path fill-rule="evenodd" clip-rule="evenodd" d="M102.766 37.5402V1L104.718 1L104.718 37.5402H102.766ZM93.7755 37.5402L93.7755 1L95.7273 1L95.7273 37.5402H93.7755ZM84.7852 37.5402L84.7852 1L86.737 1L86.737 37.5402H84.7852ZM75.7949 37.5402L75.7949 1L77.7467 1L77.7467 37.5402H75.7949ZM74.7949 38.5402L74.7949 37.5402L74.7949 1L74.7949 1.55087e-06L75.7949 1.50071e-06L77.7467 1.40283e-06L78.7467 1.35267e-06V1L78.7467 37.5402V38.5402H77.7467H75.7949H74.7949ZM83.7852 1.09998e-06L83.7852 1L83.7852 37.5402L83.7852 38.5402H84.7852H86.737H87.737L87.737 37.5402L87.737 1L87.737 9.01782e-07L86.737 9.51935e-07L84.7852 1.04982e-06L83.7852 1.09998e-06ZM92.7755 38.5402V37.5402L92.7755 1V6.49085e-07L93.7755 5.98931e-07L95.7273 5.01044e-07L96.7273 4.50891e-07V1L96.7273 37.5402V38.5402H95.7273H93.7755H92.7755ZM101.766 38.5402V37.5402V1V1.98193e-07L102.766 1.4804e-07L104.718 5.01531e-08L105.718 0V1L105.718 37.5402V38.5402H104.718H102.766H101.766Z"/>
</mask>
<path d="M102.766 1V0.5L102.266 0.5V1H102.766ZM102.766 37.5402H102.266V38.0402H102.766V37.5402ZM104.718 1H105.218V0.5L104.718 0.5V1ZM104.718 37.5402V38.0402H105.218V37.5402H104.718ZM93.7755 1V0.500001H93.2755V1H93.7755ZM93.7755 37.5402H93.2755V38.0402H93.7755V37.5402ZM95.7273 1H96.2273V0.5H95.7273V1ZM95.7273 37.5402V38.0402H96.2273V37.5402H95.7273ZM84.7852 1V0.500001H84.2852V1H84.7852ZM84.7852 37.5402H84.2852L84.2852 38.0402H84.7852V37.5402ZM86.737 1H87.237V0.500001H86.737V1ZM86.737 37.5402V38.0402H87.237L87.237 37.5402H86.737ZM75.7949 1V0.500001L75.2949 0.500002L75.2949 1H75.7949ZM75.7949 37.5402H75.2949V38.0402H75.7949V37.5402ZM77.7467 1H78.2467V0.500001L77.7467 0.500001V1ZM77.7467 37.5402V38.0402H78.2467V37.5402H77.7467ZM74.7949 37.5402H75.2949H74.7949ZM74.7949 38.5402H74.2949L74.2949 39.0402H74.7949V38.5402ZM74.7949 1H74.2949H74.7949ZM74.7949 1.55087e-06L74.7949 -0.499998L74.2949 -0.499998V1.56992e-06L74.7949 1.55087e-06ZM75.7949 1.50071e-06V-0.499999V1.50071e-06ZM77.7467 1.40283e-06V0.500001V1.40283e-06ZM78.7467 1.35267e-06L79.2467 1.33363e-06V-0.499999H78.7467V1.35267e-06ZM78.7467 1L78.2467 1L78.7467 1ZM78.7467 37.5402H79.2467H78.7467ZM78.7467 38.5402V39.0402H79.2467V38.5402H78.7467ZM77.7467 38.5402V38.0402V38.5402ZM75.7949 38.5402V39.0402V38.5402ZM83.7852 1L83.2852 1V1H83.7852ZM83.7852 1.09998e-06V-0.499999L83.2852 -0.499999V6.42187e-07L83.7852 1.09998e-06ZM83.7852 37.5402H84.2852H83.7852ZM83.7852 38.5402H83.2852V39.0402H83.7852V38.5402ZM84.7852 38.5402V39.0402V38.5402ZM86.737 38.5402V38.0402V38.5402ZM87.737 38.5402V39.0402H88.237V38.5402H87.737ZM87.737 37.5402H88.237H87.737ZM87.737 1L87.237 1V1H87.737ZM87.737 9.01782e-07L88.237 1.35957e-06V-0.499999L87.737 -0.499999V9.01782e-07ZM86.737 9.51935e-07V-0.499999V9.51935e-07ZM84.7852 1.04982e-06V0.500001V1.04982e-06ZM92.7755 37.5402H93.2755H92.7755ZM92.7755 38.5402H92.2755V39.0402H92.7755V38.5402ZM92.7755 1L92.2755 1L92.7755 1ZM92.7755 6.49085e-07V-0.499999L92.2755 -0.499999V6.68133e-07L92.7755 6.49085e-07ZM93.7755 5.98931e-07V0.500001V5.98931e-07ZM95.7273 5.01044e-07V-0.499999V5.01044e-07ZM96.7273 4.50891e-07L97.2273 4.31843e-07V-0.5L96.7273 -0.5V4.50891e-07ZM96.7273 1H96.2273H96.7273ZM96.7273 37.5402H97.2273H96.7273ZM96.7273 38.5402V39.0402H97.2273V38.5402H96.7273ZM95.7273 38.5402V39.0402V38.5402ZM93.7755 38.5402V38.0402V38.5402ZM101.766 37.5402H101.266H101.766ZM101.766 38.5402H101.266V39.0402H101.766V38.5402ZM101.766 1H102.266H101.766ZM101.766 1.98193e-07V-0.5H101.266V2.17242e-07L101.766 1.98193e-07ZM102.766 1.4804e-07V-0.5V1.4804e-07ZM104.718 5.01531e-08V-0.5V5.01531e-08ZM105.718 0L106.218 -1.90485e-08V-0.5H105.718V0ZM105.718 1H105.218H105.718ZM105.718 37.5402H106.218H105.718ZM105.718 38.5402V39.0402H106.218V38.5402H105.718ZM104.718 38.5402V39.0402V38.5402ZM102.766 38.5402V38.0402V38.5402ZM102.266 1V3.61001H103.266V1H102.266ZM102.266 5.69802V10.918H103.266V5.69802H102.266ZM102.266 13.0061V18.2261H103.266V13.0061H102.266ZM102.266 20.3141V25.5341H103.266V20.3141H102.266ZM102.266 27.6221V32.8421H103.266V27.6221H102.266ZM102.266 34.9301V37.5402H103.266V34.9301H102.266ZM102.766 38.0402H103.463V37.0402H102.766V38.0402ZM104.021 38.0402H104.718V37.0402H104.021V38.0402ZM105.218 37.5402V34.9301H104.218V37.5402H105.218ZM105.218 32.8421V27.6221H104.218V32.8421H105.218ZM105.218 25.5341L105.218 20.3141H104.218L104.218 25.5341H105.218ZM105.218 18.2261V13.0061H104.218V18.2261H105.218ZM105.218 10.918V5.69802H104.218V10.918H105.218ZM105.218 3.61001V1L104.218 1V3.61001H105.218ZM104.718 0.5H104.021V1.5L104.718 1.5V0.5ZM103.463 0.5H102.766V1.5H103.463V0.5ZM93.2755 1V3.61001L94.2755 3.61001V1H93.2755ZM93.2755 5.69802V10.918H94.2755V5.69802H93.2755ZM93.2755 13.0061V18.2261H94.2755V13.0061H93.2755ZM93.2755 20.3141L93.2755 25.5341H94.2755L94.2755 20.3141H93.2755ZM93.2755 27.6221V32.8421H94.2755V27.6221H93.2755ZM93.2755 34.9301V37.5402H94.2755V34.9301H93.2755ZM93.7755 38.0402H94.4726V37.0402H93.7755V38.0402ZM95.0302 38.0402H95.7273V37.0402H95.0302V38.0402ZM96.2273 37.5402V34.9301H95.2273V37.5402H96.2273ZM96.2273 32.8421L96.2273 27.6221H95.2273L95.2273 32.8421H96.2273ZM96.2273 25.5341V20.3141L95.2273 20.3141V25.5341H96.2273ZM96.2273 18.2261V13.0061H95.2273V18.2261H96.2273ZM96.2273 10.918V5.69802H95.2273V10.918H96.2273ZM96.2273 3.61001V1L95.2273 1V3.61001L96.2273 3.61001ZM95.7273 0.5L95.0302 0.500001V1.5H95.7273V0.5ZM94.4726 0.500001L93.7755 0.500001V1.5H94.4726V0.500001ZM84.2852 1V3.61001H85.2852V1H84.2852ZM84.2852 5.69802L84.2852 10.918H85.2852L85.2852 5.69802H84.2852ZM84.2852 13.0061V18.2261H85.2852V13.0061H84.2852ZM84.2852 20.3141L84.2852 25.5341H85.2852L85.2852 20.3141H84.2852ZM84.2852 27.6221V32.8421H85.2852V27.6221H84.2852ZM84.2852 34.9301V37.5402H85.2852V34.9301H84.2852ZM84.7852 38.0402H85.4823V37.0402H84.7852L84.7852 38.0402ZM86.0399 38.0402H86.737L86.737 37.0402H86.0399V38.0402ZM87.237 37.5402V34.9301H86.237V37.5402H87.237ZM87.237 32.8421V27.6221H86.237V32.8421H87.237ZM87.237 25.5341V20.3141H86.237V25.5341H87.237ZM87.237 18.2261V13.0061H86.237V18.2261H87.237ZM87.237 10.918V5.69802H86.237V10.918H87.237ZM87.237 3.61001V1H86.237V3.61001H87.237ZM86.737 0.500001L86.0399 0.500001V1.5H86.737V0.500001ZM85.4823 0.500001L84.7852 0.500001V1.5H85.4823L85.4823 0.500001ZM75.2949 1L75.2949 3.61001H76.2949L76.2949 1L75.2949 1ZM75.2949 5.69802L75.2949 10.918H76.2949L76.2949 5.69802H75.2949ZM75.2949 13.0061L75.2949 18.2261H76.2949L76.2949 13.0061H75.2949ZM75.2949 20.3141L75.2949 25.5341H76.2949L76.2949 20.3141H75.2949ZM75.2949 27.6221L75.2949 32.8421H76.2949L76.2949 27.6221H75.2949ZM75.2949 34.9301L75.2949 37.5402H76.2949L76.2949 34.9301H75.2949ZM75.7949 38.0402H76.492V37.0402H75.7949V38.0402ZM77.0496 38.0402H77.7467V37.0402H77.0496V38.0402ZM78.2467 37.5402V34.9301H77.2467V37.5402H78.2467ZM78.2467 32.8421L78.2467 27.6221H77.2467L77.2467 32.8421H78.2467ZM78.2467 25.5341L78.2467 20.3141H77.2467L77.2467 25.5341H78.2467ZM78.2467 18.2261L78.2467 13.0061H77.2467L77.2467 18.2261H78.2467ZM78.2467 10.918L78.2467 5.69802H77.2467L77.2467 10.918L78.2467 10.918ZM78.2467 3.61001L78.2467 1H77.2467L77.2467 3.61001H78.2467ZM77.7467 0.500001H77.0496V1.5H77.7467V0.500001ZM76.492 0.500001H75.7949L75.7949 1.5L76.492 1.5V0.500001ZM75.2949 37.5402L75.2949 34.9301H74.2949L74.2949 37.5402H75.2949ZM75.2949 32.8421L75.2949 27.6221H74.2949L74.2949 32.8421H75.2949ZM75.2949 25.5341L75.2949 20.3141H74.2949L74.2949 25.5341H75.2949ZM75.2949 18.2261L75.2949 13.0061H74.2949L74.2949 18.2261H75.2949ZM75.2949 10.918L75.2949 5.69802H74.2949L74.2949 10.918H75.2949ZM75.2949 3.61001L75.2949 1H74.2949L74.2949 3.61001L75.2949 3.61001ZM75.2949 1L75.2949 0.642859H74.2949V1H75.2949ZM75.2949 0.357144V1.53182e-06L74.2949 1.56992e-06V0.357144L75.2949 0.357144ZM74.7949 0.500002H75.1521L75.1521 -0.499998L74.7949 -0.499998L74.7949 0.500002ZM75.4378 0.500001H75.7949V-0.499999L75.4378 -0.499998L75.4378 0.500001ZM75.7949 0.500001H76.492V-0.499999L75.7949 -0.499999V0.500001ZM77.0496 0.500001H77.7467V-0.499999L77.0496 -0.499999V0.500001ZM77.7467 0.500001L78.1038 0.500001V-0.499999L77.7467 -0.499999V0.500001ZM78.3896 0.500001H78.7467V-0.499999L78.3896 -0.499999L78.3896 0.500001ZM78.2467 1.37172e-06V0.357144L79.2467 0.357144V1.33363e-06L78.2467 1.37172e-06ZM78.2467 0.642859V1L79.2467 1V0.642859L78.2467 0.642859ZM78.2467 1L78.2467 3.61001L79.2467 3.61001V1L78.2467 1ZM78.2467 5.69802L78.2467 10.918H79.2467L79.2467 5.69802H78.2467ZM78.2467 13.0061L78.2467 18.2261H79.2467V13.0061H78.2467ZM78.2467 20.3141L78.2467 25.5341H79.2467V20.3141H78.2467ZM78.2467 27.6221L78.2467 32.8421H79.2467L79.2467 27.6221H78.2467ZM78.2467 34.9301V37.5402H79.2467V34.9301H78.2467ZM78.2467 37.5402V37.8973H79.2467V37.5402H78.2467ZM78.2467 38.183V38.5402H79.2467V38.183H78.2467ZM78.7467 38.0402H78.3896V39.0402H78.7467V38.0402ZM78.1038 38.0402H77.7467V39.0402H78.1038V38.0402ZM77.7467 38.0402H77.0496V39.0402H77.7467V38.0402ZM76.492 38.0402H75.7949V39.0402H76.492V38.0402ZM75.7949 38.0402H75.4378V39.0402H75.7949V38.0402ZM75.1521 38.0402H74.7949V39.0402H75.1521V38.0402ZM75.2949 38.5402L75.2949 38.183H74.2949V38.5402H75.2949ZM75.2949 37.8973V37.5402H74.2949V37.8973H75.2949ZM84.2852 1V0.642859L83.2852 0.642858V1L84.2852 1ZM84.2852 0.357144V1.55776e-06L83.2852 6.42187e-07V0.357143L84.2852 0.357144ZM83.7852 0.500001H84.1424V-0.499999L83.7852 -0.499999V0.500001ZM84.4281 0.500001H84.7852V-0.499999L84.4281 -0.499999V0.500001ZM84.7852 0.500001L85.4823 0.500001V-0.499999L84.7852 -0.499999V0.500001ZM86.0399 0.500001L86.737 0.500001V-0.499999L86.0399 -0.499999V0.500001ZM86.737 0.500001H87.0941V-0.499999L86.737 -0.499999V0.500001ZM87.3799 0.500001H87.737V-0.499999L87.3799 -0.499999V0.500001ZM87.237 4.43994e-07V0.357143L88.237 0.357144V1.35957e-06L87.237 4.43994e-07ZM87.237 0.642858V1L88.237 1V0.642859L87.237 0.642858ZM87.237 1V3.61001H88.237V1L87.237 1ZM87.237 5.69802V10.918H88.237V5.69802H87.237ZM87.237 13.0061V18.2261H88.237V13.0061H87.237ZM87.237 20.3141V25.5341H88.237V20.3141H87.237ZM87.237 27.6221V32.8421H88.237V27.6221H87.237ZM87.237 34.9301V37.5402H88.237V34.9301H87.237ZM87.237 37.5402L87.237 37.8973H88.237L88.237 37.5402H87.237ZM87.237 38.183V38.5402H88.237V38.183H87.237ZM87.737 38.0402H87.3799V39.0402H87.737V38.0402ZM87.0941 38.0402H86.737V39.0402H87.0941V38.0402ZM86.737 38.0402H86.0399V39.0402H86.737V38.0402ZM85.4823 38.0402H84.7852V39.0402H85.4823V38.0402ZM84.7852 38.0402H84.4281V39.0402H84.7852V38.0402ZM84.1424 38.0402H83.7852V39.0402H84.1424V38.0402ZM84.2852 38.5402V38.183H83.2852V38.5402H84.2852ZM84.2852 37.8973L84.2852 37.5402H83.2852L83.2852 37.8973H84.2852ZM84.2852 37.5402V34.9301H83.2852V37.5402H84.2852ZM84.2852 32.8421V27.6221H83.2852V32.8421H84.2852ZM84.2852 25.5341L84.2852 20.3141H83.2852L83.2852 25.5341H84.2852ZM84.2852 18.2261V13.0061H83.2852V18.2261H84.2852ZM84.2852 10.918L84.2852 5.69802H83.2852L83.2852 10.918H84.2852ZM84.2852 3.61001V1H83.2852V3.61001H84.2852ZM93.2755 37.5402V34.9301H92.2755V37.5402H93.2755ZM93.2755 32.8421V27.6221H92.2755V32.8421H93.2755ZM93.2755 25.5341L93.2755 20.3141H92.2755L92.2755 25.5341H93.2755ZM93.2755 18.2261V13.0061H92.2755V18.2261H93.2755ZM93.2755 10.918V5.69802H92.2755V10.918H93.2755ZM93.2755 3.61001V1L92.2755 1V3.61001H93.2755ZM93.2755 1V0.642858H92.2755V1L93.2755 1ZM93.2755 0.357143V6.30036e-07L92.2755 6.68133e-07V0.357143L93.2755 0.357143ZM92.7755 0.500001H93.1327V-0.499999L92.7755 -0.499999V0.500001ZM93.4184 0.500001H93.7755V-0.499999L93.4184 -0.499999V0.500001ZM93.7755 0.500001L94.4726 0.500001V-0.499999L93.7755 -0.499999V0.500001ZM95.0302 0.500001L95.7273 0.5V-0.499999L95.0302 -0.499999V0.500001ZM95.7273 0.5H96.0844V-0.5L95.7273 -0.499999V0.5ZM96.3702 0.5H96.7273V-0.5L96.3702 -0.5V0.5ZM96.2273 4.6994e-07V0.357143L97.2273 0.357143V4.31843e-07L96.2273 4.6994e-07ZM96.2273 0.642858V1H97.2273V0.642858L96.2273 0.642858ZM96.2273 1V3.61001H97.2273V1L96.2273 1ZM96.2273 5.69802V10.918H97.2273V5.69802H96.2273ZM96.2273 13.0061V18.2261H97.2273V13.0061H96.2273ZM96.2273 20.3141V25.5341H97.2273V20.3141H96.2273ZM96.2273 27.6221L96.2273 32.8421H97.2273L97.2273 27.6221H96.2273ZM96.2273 34.9301V37.5402H97.2273V34.9301H96.2273ZM96.2273 37.5402V37.8973H97.2273V37.5402H96.2273ZM96.2273 38.183V38.5402H97.2273V38.183H96.2273ZM96.7273 38.0402H96.3702V39.0402H96.7273V38.0402ZM96.0844 38.0402H95.7273V39.0402H96.0844V38.0402ZM95.7273 38.0402H95.0302V39.0402H95.7273V38.0402ZM94.4726 38.0402H93.7755V39.0402H94.4726V38.0402ZM93.7755 38.0402H93.4184V39.0402H93.7755V38.0402ZM93.1327 38.0402H92.7755V39.0402H93.1327V38.0402ZM93.2755 38.5402V38.183H92.2755V38.5402H93.2755ZM93.2755 37.8973V37.5402H92.2755V37.8973H93.2755ZM101.266 37.5402V37.8973H102.266V37.5402H101.266ZM101.266 38.183V38.5402H102.266V38.183H101.266ZM101.766 39.0402H102.123V38.0402H101.766V39.0402ZM102.409 39.0402H102.766V38.0402H102.409V39.0402ZM102.766 39.0402H103.463V38.0402H102.766V39.0402ZM104.021 39.0402H104.718V38.0402H104.021V39.0402ZM104.718 39.0402H105.075V38.0402H104.718V39.0402ZM105.36 39.0402H105.718V38.0402H105.36V39.0402ZM106.218 38.5402V38.183H105.218V38.5402H106.218ZM106.218 37.8973V37.5402H105.218V37.8973H106.218ZM106.218 37.5402V34.9301H105.218V37.5402H106.218ZM106.218 32.8421V27.6221H105.218V32.8421H106.218ZM106.218 25.5341L106.218 20.3141H105.218L105.218 25.5341H106.218ZM106.218 18.2261V13.0061H105.218V18.2261H106.218ZM106.218 10.918V5.69802H105.218V10.918H106.218ZM106.218 3.61001V1H105.218V3.61001L106.218 3.61001ZM106.218 1V0.642857H105.218V1H106.218ZM106.218 0.357143V-1.90485e-08L105.218 1.90485e-08V0.357143L106.218 0.357143ZM105.718 -0.5L105.36 -0.5V0.5H105.718V-0.5ZM105.075 -0.5L104.718 -0.5V0.5H105.075V-0.5ZM104.718 -0.5L104.021 -0.5V0.5H104.718V-0.5ZM103.463 -0.5L102.766 -0.5V0.5H103.463V-0.5ZM102.766 -0.5L102.409 -0.5V0.5L102.766 0.5V-0.5ZM102.123 -0.5L101.766 -0.5V0.5H102.123V-0.5ZM101.266 2.17242e-07V0.357143L102.266 0.357143V1.79145e-07L101.266 2.17242e-07ZM101.266 0.642857V1H102.266V0.642857L101.266 0.642857ZM101.266 1V3.61001H102.266V1H101.266ZM101.266 5.69802V10.918H102.266V5.69802H101.266ZM101.266 13.0061V18.2261H102.266V13.0061H101.266ZM101.266 20.3141V25.5341H102.266V20.3141H101.266ZM101.266 27.6221V32.8421H102.266V27.6221H101.266ZM101.266 34.9301V37.5402H102.266V34.9301H101.266ZM102.766 1V1.4804e-07L101.766 1.98193e-07V1H102.766ZM102.766 37.5402H101.766V38.5402H102.766V37.5402ZM104.718 1H105.718V0L104.718 5.01531e-08V1ZM104.718 37.5402V38.5402H105.718V37.5402H104.718ZM93.7755 1V5.98931e-07L92.7755 6.49085e-07V1H93.7755ZM93.7755 37.5402H92.7755V38.5402H93.7755V37.5402ZM95.7273 1L96.7273 1V4.50891e-07L95.7273 5.01044e-07V1ZM95.7273 37.5402V38.5402H96.7273V37.5402H95.7273ZM84.7852 1V1.04982e-06L83.7852 1.09998e-06V1H84.7852ZM84.7852 37.5402H83.7852L83.7852 38.5402H84.7852V37.5402ZM86.737 1H87.737V9.01783e-07L86.737 9.51936e-07V1ZM86.737 37.5402V38.5402H87.737L87.737 37.5402H86.737ZM75.7949 1V1.50071e-06L74.7949 1.55087e-06L74.7949 1H75.7949ZM75.7949 37.5402H74.7949L74.7949 38.5402H75.7949V37.5402ZM77.7467 1L78.7467 1V1.35267e-06L77.7467 1.40283e-06V1ZM77.7467 37.5402V38.5402H78.7467V37.5402H77.7467ZM74.7949 37.5402H75.7949H74.7949ZM74.7949 38.5402H73.7949V39.5402H74.7949V38.5402ZM74.7949 1H73.7949H74.7949ZM74.7949 1.55087e-06L74.7949 -0.999998L73.7949 -0.999998V1.58896e-06L74.7949 1.55087e-06ZM75.7949 1.50071e-06V-0.999999V1.50071e-06ZM77.7467 1.40283e-06V1V1.40283e-06ZM78.7467 1.35267e-06L79.7467 1.31458e-06V-0.999999L78.7467 -0.999999V1.35267e-06ZM78.7467 1L77.7467 1L78.7467 1ZM78.7467 37.5402H79.7467H78.7467ZM78.7467 38.5402V39.5402H79.7467V38.5402H78.7467ZM77.7467 38.5402V37.5402V38.5402ZM75.7949 38.5402V39.5402V38.5402ZM83.7852 1L82.7852 1V1L83.7852 1ZM83.7852 1.09998e-06V-0.999999L82.7852 -0.999999L82.7852 1.84398e-07L83.7852 1.09998e-06ZM83.7852 37.5402H84.7852H83.7852ZM83.7852 38.5402H82.7852V39.5402H83.7852V38.5402ZM84.7852 38.5402V39.5402V38.5402ZM86.737 38.5402V37.5402V38.5402ZM87.737 38.5402V39.5402H88.737V38.5402H87.737ZM87.737 37.5402H88.737H87.737ZM87.737 1L86.737 1V1H87.737ZM87.737 9.01782e-07L88.737 1.81736e-06L88.737 -0.999999L87.737 -0.999999V9.01782e-07ZM86.737 9.51935e-07V-0.999999V9.51935e-07ZM84.7852 1.04982e-06V1V1.04982e-06ZM92.7755 37.5402H93.7755H92.7755ZM92.7755 38.5402H91.7755V39.5402H92.7755V38.5402ZM92.7755 1L91.7755 1L92.7755 1ZM92.7755 6.49085e-07V-0.999999L91.7755 -0.999999V6.87181e-07L92.7755 6.49085e-07ZM93.7755 5.98931e-07V1V5.98931e-07ZM95.7273 5.01044e-07V-1V5.01044e-07ZM96.7273 4.50891e-07L97.7273 4.12794e-07V-1L96.7273 -1V4.50891e-07ZM96.7273 1H95.7273V1L96.7273 1ZM96.7273 37.5402H97.7273H96.7273ZM96.7273 38.5402V39.5402H97.7273V38.5402H96.7273ZM95.7273 38.5402V39.5402V38.5402ZM93.7755 38.5402V37.5402V38.5402ZM101.766 37.5402H100.766H101.766ZM101.766 38.5402H100.766V39.5402H101.766V38.5402ZM101.766 1H102.766V1L101.766 1ZM101.766 1.98193e-07V-1L100.766 -1V2.3629e-07L101.766 1.98193e-07ZM102.766 1.4804e-07V-1V1.4804e-07ZM104.718 5.01531e-08V-1V5.01531e-08ZM105.718 0L106.718 -3.80969e-08V-1H105.718V0ZM105.718 1H104.718H105.718ZM105.718 37.5402H106.718H105.718ZM105.718 38.5402V39.5402H106.718V38.5402H105.718ZM104.718 38.5402V39.5402V38.5402ZM102.766 38.5402V37.5402V38.5402ZM101.766 1V3.61001H103.766V1H101.766ZM101.766 5.69802V10.918H103.766V5.69802H101.766ZM101.766 13.0061V18.2261H103.766V13.0061H101.766ZM101.766 20.3141V25.5341H103.766V20.3141H101.766ZM101.766 27.6221V32.8421H103.766V27.6221H101.766ZM101.766 34.9301V37.5402H103.766V34.9301H101.766ZM102.766 38.5402H103.463V36.5402H102.766V38.5402ZM104.021 38.5402H104.718V36.5402H104.021V38.5402ZM105.718 37.5402V34.9301H103.718V37.5402H105.718ZM105.718 32.8421V27.6221H103.718V32.8421H105.718ZM105.718 25.5341L105.718 20.3141H103.718L103.718 25.5341H105.718ZM105.718 18.2261V13.0061H103.718V18.2261H105.718ZM105.718 10.918V5.69802H103.718V10.918L105.718 10.918ZM105.718 3.61001V1L103.718 1V3.61001H105.718ZM104.718 5.01531e-08L104.021 8.51127e-08V2H104.718V5.01531e-08ZM103.463 1.1308e-07L102.766 1.4804e-07V2L103.463 2V1.1308e-07ZM92.7755 1V3.61001L94.7755 3.61001V1H92.7755ZM92.7755 5.69802V10.918H94.7755V5.69802L92.7755 5.69802ZM92.7755 13.0061V18.2261H94.7755V13.0061H92.7755ZM92.7755 20.3141L92.7755 25.5341H94.7755L94.7755 20.3141L92.7755 20.3141ZM92.7755 27.6221V32.8421H94.7755V27.6221H92.7755ZM92.7755 34.9301V37.5402H94.7755V34.9301H92.7755ZM93.7755 38.5402H94.4726V36.5402H93.7755V38.5402ZM95.0302 38.5402H95.7273V36.5402H95.0302V38.5402ZM96.7273 37.5402V34.9301H94.7273V37.5402H96.7273ZM96.7273 32.8421L96.7273 27.6221H94.7273L94.7273 32.8421H96.7273ZM96.7273 25.5341V20.3141L94.7273 20.3141V25.5341H96.7273ZM96.7273 18.2261V13.0061H94.7273V18.2261H96.7273ZM96.7273 10.918V5.69802H94.7273V10.918H96.7273ZM96.7273 3.61001V1L94.7273 1V3.61001L96.7273 3.61001ZM95.7273 5.01044e-07L95.0302 5.36004e-07V2H95.7273V5.01044e-07ZM94.4726 5.63972e-07L93.7755 5.98931e-07V2L94.4726 2V5.63972e-07ZM83.7852 1V3.61001L85.7852 3.61001V1L83.7852 1ZM83.7852 5.69802L83.7852 10.918H85.7852L85.7852 5.69802L83.7852 5.69802ZM83.7852 13.0061V18.2261H85.7852V13.0061H83.7852ZM83.7852 20.3141L83.7852 25.5341H85.7852L85.7852 20.3141H83.7852ZM83.7852 27.6221V32.8421H85.7852V27.6221H83.7852ZM83.7852 34.9301V37.5402H85.7852V34.9301H83.7852ZM84.7852 38.5402H85.4823V36.5402H84.7852L84.7852 38.5402ZM86.0399 38.5402H86.737L86.737 36.5402H86.0399V38.5402ZM87.737 37.5402V34.9301H85.737V37.5402H87.737ZM87.737 32.8421V27.6221H85.737V32.8421H87.737ZM87.737 25.5341V20.3141H85.737V25.5341H87.737ZM87.737 18.2261V13.0061H85.737V18.2261H87.737ZM87.737 10.918V5.69802H85.737V10.918H87.737ZM87.737 3.61001V1H85.737V3.61001H87.737ZM86.737 9.51936e-07L86.0399 9.86895e-07V2H86.737V9.51936e-07ZM85.4823 1.01486e-06L84.7852 1.04982e-06V2H85.4823L85.4823 1.01486e-06ZM74.7949 1L74.7949 3.61001H76.7949L76.7949 1L74.7949 1ZM74.7949 5.69802L74.7949 10.918H76.7949L76.7949 5.69802H74.7949ZM74.7949 13.0061L74.7949 18.2261H76.7949L76.7949 13.0061H74.7949ZM74.7949 20.3141L74.7949 25.5341H76.7949L76.7949 20.3141H74.7949ZM74.7949 27.6221L74.7949 32.8421H76.7949L76.7949 27.6221H74.7949ZM74.7949 34.9301L74.7949 37.5402H76.7949V34.9301H74.7949ZM75.7949 38.5402H76.492V36.5402H75.7949V38.5402ZM77.0496 38.5402H77.7467V36.5402H77.0496V38.5402ZM78.7467 37.5402V34.9301H76.7467L76.7467 37.5402H78.7467ZM78.7467 32.8421L78.7467 27.6221H76.7467L76.7467 32.8421H78.7467ZM78.7467 25.5341L78.7467 20.3141H76.7467L76.7467 25.5341H78.7467ZM78.7467 18.2261L78.7467 13.0061H76.7467L76.7467 18.2261H78.7467ZM78.7467 10.918L78.7467 5.69802H76.7467L76.7467 10.918L78.7467 10.918ZM78.7467 3.61001L78.7467 1L76.7467 1L76.7467 3.61001H78.7467ZM77.7467 1.40283e-06L77.0496 1.43779e-06V2H77.7467V1.40283e-06ZM76.492 1.46575e-06L75.7949 1.50071e-06L75.7949 2H76.492V1.46575e-06ZM75.7949 37.5402L75.7949 34.9301H73.7949L73.7949 37.5402H75.7949ZM75.7949 32.8421L75.7949 27.6221H73.7949L73.7949 32.8421H75.7949ZM75.7949 25.5341L75.7949 20.3141H73.7949L73.7949 25.5341H75.7949ZM75.7949 18.2261L75.7949 13.0061H73.7949L73.7949 18.2261H75.7949ZM75.7949 10.918L75.7949 5.69802H73.7949L73.7949 10.918H75.7949ZM75.7949 3.61001L75.7949 1H73.7949L73.7949 3.61001L75.7949 3.61001ZM75.7949 1V0.642859L73.7949 0.642859L73.7949 1H75.7949ZM75.7949 0.357144V1.51277e-06L73.7949 1.58896e-06V0.357144L75.7949 0.357144ZM74.7949 1H75.1521L75.1521 -0.999998H74.7949L74.7949 1ZM75.4378 1H75.7949V-0.999999H75.4378L75.4378 1ZM75.7949 1L76.492 1L76.492 -0.999999H75.7949V1ZM77.0496 1H77.7467V-0.999999H77.0496V1ZM77.7467 1H78.1038V-0.999999L77.7467 -0.999999V1ZM78.3896 1H78.7467V-0.999999H78.3896L78.3896 1ZM77.7467 1.39077e-06V0.357144L79.7467 0.357144V1.31458e-06L77.7467 1.39077e-06ZM77.7467 0.642859V1L79.7467 1V0.642859L77.7467 0.642859ZM77.7467 1L77.7467 3.61001L79.7467 3.61001V1L77.7467 1ZM77.7467 5.69802L77.7467 10.918H79.7467L79.7467 5.69802H77.7467ZM77.7467 13.0061L77.7467 18.2261H79.7467V13.0061H77.7467ZM77.7467 20.3141L77.7467 25.5341H79.7467V20.3141H77.7467ZM77.7467 27.6221L77.7467 32.8421H79.7467L79.7467 27.6221H77.7467ZM77.7467 34.9301V37.5402H79.7467V34.9301H77.7467ZM77.7467 37.5402V37.8973H79.7467V37.5402H77.7467ZM77.7467 38.183V38.5402H79.7467V38.183H77.7467ZM78.7467 37.5402H78.3896V39.5402H78.7467V37.5402ZM78.1038 37.5402H77.7467V39.5402H78.1038V37.5402ZM77.7467 37.5402H77.0496V39.5402H77.7467V37.5402ZM76.492 37.5402H75.7949V39.5402H76.492V37.5402ZM75.7949 37.5402H75.4378V39.5402H75.7949V37.5402ZM75.1521 37.5402H74.7949V39.5402H75.1521V37.5402ZM75.7949 38.5402V38.183H73.7949L73.7949 38.5402H75.7949ZM75.7949 37.8973V37.5402H73.7949V37.8973H75.7949ZM84.7852 1V0.642859L82.7852 0.642857L82.7852 1L84.7852 1ZM84.7852 0.357145V2.01555e-06L82.7852 1.84398e-07L82.7852 0.357143L84.7852 0.357145ZM83.7852 1H84.1424V-0.999999H83.7852V1ZM84.4281 1H84.7852V-0.999999H84.4281V1ZM84.7852 1H85.4823V-0.999999L84.7852 -0.999999V1ZM86.0399 1H86.737V-0.999999L86.0399 -0.999999V1ZM86.737 1H87.0941V-0.999999H86.737V1ZM87.3799 1H87.737V-0.999999H87.3799V1ZM86.737 -1.37951e-08V0.357143L88.737 0.357145V1.81736e-06L86.737 -1.37951e-08ZM86.737 0.642857V1L88.737 1V0.642859L86.737 0.642857ZM86.737 1V3.61001H88.737V1L86.737 1ZM86.737 5.69802V10.918H88.737V5.69802H86.737ZM86.737 13.0061V18.2261H88.737V13.0061H86.737ZM86.737 20.3141V25.5341H88.737V20.3141H86.737ZM86.737 27.6221V32.8421H88.737V27.6221H86.737ZM86.737 34.9301V37.5402H88.737V34.9301H86.737ZM86.737 37.5402L86.737 37.8973H88.737L88.737 37.5402H86.737ZM86.737 38.183V38.5402H88.737V38.183H86.737ZM87.737 37.5402H87.3799V39.5402H87.737V37.5402ZM87.0941 37.5402H86.737V39.5402H87.0941V37.5402ZM86.737 37.5402H86.0399V39.5402H86.737V37.5402ZM85.4823 37.5402H84.7852V39.5402H85.4823V37.5402ZM84.7852 37.5402H84.4281V39.5402H84.7852V37.5402ZM84.1424 37.5402H83.7852V39.5402H84.1424V37.5402ZM84.7852 38.5402V38.183H82.7852V38.5402H84.7852ZM84.7852 37.8973L84.7852 37.5402H82.7852V37.8973H84.7852ZM84.7852 37.5402V34.9301H82.7852V37.5402H84.7852ZM84.7852 32.8421V27.6221H82.7852V32.8421H84.7852ZM84.7852 25.5341L84.7852 20.3141H82.7852V25.5341H84.7852ZM84.7852 18.2261V13.0061H82.7852V18.2261H84.7852ZM84.7852 10.918L84.7852 5.69802H82.7852V10.918H84.7852ZM84.7852 3.61001V1L82.7852 1V3.61001H84.7852ZM93.7755 37.5402V34.9301H91.7755V37.5402H93.7755ZM93.7755 32.8421V27.6221H91.7755V32.8421H93.7755ZM93.7755 25.5341L93.7755 20.3141H91.7755L91.7755 25.5341H93.7755ZM93.7755 18.2261V13.0061H91.7755V18.2261H93.7755ZM93.7755 10.918V5.69802H91.7755V10.918H93.7755ZM93.7755 3.61001V1L91.7755 1V3.61001H93.7755ZM93.7755 1V0.642858L91.7755 0.642858V1L93.7755 1ZM93.7755 0.357143V6.10988e-07L91.7755 6.87181e-07V0.357143L93.7755 0.357143ZM92.7755 1H93.1327V-0.999999H92.7755V1ZM93.4184 1H93.7755V-0.999999H93.4184V1ZM93.7755 1H94.4726V-0.999999L93.7755 -0.999999V1ZM95.0302 1H95.7273V-1L95.0302 -0.999999V1ZM95.7273 1H96.0844V-1H95.7273V1ZM96.3702 1H96.7273V-1H96.3702V1ZM95.7273 4.88988e-07V0.357143L97.7273 0.357143V4.12794e-07L95.7273 4.88988e-07ZM95.7273 0.642858V1L97.7273 1V0.642858L95.7273 0.642858ZM95.7273 1V3.61001H97.7273V1L95.7273 1ZM95.7273 5.69802V10.918H97.7273V5.69802H95.7273ZM95.7273 13.0061V18.2261H97.7273V13.0061L95.7273 13.0061ZM95.7273 20.3141V25.5341H97.7273V20.3141L95.7273 20.3141ZM95.7273 27.6221L95.7273 32.8421H97.7273L97.7273 27.6221H95.7273ZM95.7273 34.9301V37.5402H97.7273V34.9301H95.7273ZM95.7273 37.5402V37.8973H97.7273V37.5402H95.7273ZM95.7273 38.183V38.5402H97.7273V38.183H95.7273ZM96.7273 37.5402H96.3702V39.5402H96.7273V37.5402ZM96.0844 37.5402H95.7273V39.5402H96.0844V37.5402ZM95.7273 37.5402H95.0302V39.5402H95.7273V37.5402ZM94.4726 37.5402H93.7755V39.5402H94.4726V37.5402ZM93.7755 37.5402H93.4184V39.5402H93.7755V37.5402ZM93.1327 37.5402H92.7755V39.5402H93.1327V37.5402ZM93.7755 38.5402V38.183H91.7755V38.5402H93.7755ZM93.7755 37.8973V37.5402H91.7755V37.8973H93.7755ZM100.766 37.5402V37.8973H102.766V37.5402H100.766ZM100.766 38.183V38.5402H102.766V38.183H100.766ZM101.766 39.5402H102.123V37.5402H101.766V39.5402ZM102.409 39.5402H102.766V37.5402H102.409V39.5402ZM102.766 39.5402H103.463V37.5402H102.766V39.5402ZM104.021 39.5402H104.718V37.5402H104.021V39.5402ZM104.718 39.5402H105.075V37.5402H104.718V39.5402ZM105.36 39.5402H105.718V37.5402H105.36V39.5402ZM106.718 38.5402V38.183H104.718V38.5402H106.718ZM106.718 37.8973V37.5402H104.718V37.8973H106.718ZM106.718 37.5402V34.9301H104.718V37.5402H106.718ZM106.718 32.8421V27.6221H104.718V32.8421H106.718ZM106.718 25.5341L106.718 20.3141H104.718L104.718 25.5341H106.718ZM106.718 18.2261V13.0061H104.718V18.2261H106.718ZM106.718 10.918V5.69802H104.718V10.918H106.718ZM106.718 3.61001V1L104.718 1V3.61001L106.718 3.61001ZM106.718 1V0.642857L104.718 0.642857V1L106.718 1ZM106.718 0.357143V-3.80969e-08L104.718 3.80969e-08V0.357143L106.718 0.357143ZM105.718 -1H105.36V1H105.718V-1ZM105.075 -1H104.718V1H105.075V-1ZM104.718 -1H104.021V1L104.718 1V-1ZM103.463 -1H102.766V1H103.463V-1ZM102.766 -1L102.409 -1V1H102.766V-1ZM102.123 -1H101.766V1H102.123V-1ZM100.766 2.3629e-07V0.357143L102.766 0.357143V1.60096e-07L100.766 2.3629e-07ZM100.766 0.642857V1L102.766 1V0.642857L100.766 0.642857ZM100.766 1V3.61001H102.766V1H100.766ZM100.766 5.69802V10.918H102.766V5.69802H100.766ZM100.766 13.0061V18.2261H102.766V13.0061H100.766ZM100.766 20.3141V25.5341H102.766V20.3141H100.766ZM100.766 27.6221V32.8421H102.766V27.6221H100.766ZM100.766 34.9301V37.5402H102.766V34.9301H100.766Z" fill="#FFA600" mask="url(#path-18-inside-4)"/>
<path fill-rule="evenodd" clip-rule="evenodd" d="M72.9334 32.6288L70.3574 32.6288H50.0693L50.0693 29.6816H70.3574L72.9334 29.6816L90.8652 29.6816L93.2215 29.6816H113.729V32.6288H93.2215H72.9334Z" fill="#FFA600"/>
<path fill-rule="evenodd" clip-rule="evenodd" d="M72.9345 9.07745L70.2793 9.07746H49.9912L49.9912 5.87165H70.2793L72.9345 5.87164H93.2225H113.729V9.07745H93.2225L90.7861 9.07746L72.9345 9.07745Z" fill="#FFA600"/>
<path fill-rule="evenodd" clip-rule="evenodd" d="M184.539 26.9781L184.539 6.23448L182.794 6.23448L182.794 26.9781L184.539 26.9781ZM177.756 26.9781L177.756 6.23448L173.804 6.23448L173.804 26.9781L177.756 26.9781ZM173.804 29.9253L177.756 29.9253L177.756 38.5402L173.804 38.5402L173.804 29.9253ZM168.765 26.9781L168.765 6.23448L164.814 6.23448L164.814 26.9781L168.765 26.9781ZM164.814 29.9253L168.765 29.9253L168.765 38.5402L164.814 38.5402L164.814 29.9253ZM159.775 26.9781L159.775 6.23448L155.823 6.23448L155.823 26.9781L159.775 26.9781ZM155.823 29.9253L159.775 29.9253L159.775 38.5402L155.823 38.5402L155.823 29.9253ZM150.785 26.9781L150.785 6.23448L146.833 6.23448L146.833 26.9781L150.785 26.9781ZM146.833 29.9253L150.785 29.9253L150.785 38.5402L146.833 38.5402L146.833 29.9253ZM146.833 3.28729L150.785 3.28729L150.785 7.4312e-06L146.833 7.62939e-06L146.833 3.28729ZM155.823 3.28729L159.775 3.28729L159.775 6.98031e-06L155.823 7.1785e-06L155.823 3.28729ZM164.814 3.28729L168.765 3.28729L168.765 6.52942e-06L164.814 6.72761e-06L164.814 3.28729ZM173.804 3.28729L177.756 3.28729L177.756 6.07853e-06L173.804 6.27672e-06L173.804 3.28729ZM182.794 3.28729L184.539 3.28729L184.539 5.73832e-06L182.794 9.64053e-06L182.794 3.28729ZM182.794 29.9253L184.539 29.9253L184.539 38.5402L182.794 38.5402L182.794 29.9253Z" fill="#FFA600"/>
<path d="M184.591 32.6287L144.217 32.6287L144.217 29.6815L184.591 29.6815L184.591 32.6287Z" fill="#FFA600"/>
<path d="M184.591 9.07745L144.077 9.07746L144.077 5.87165L184.591 5.87164L184.591 9.07745Z" fill="#FFA600"/>
</svg>
